<?xml version="1.0" encoding="utf-8"?>
<!-- Generator: Adobe Illustrator 26.4.1, SVG Export Plug-In . SVG Version: 6.00 Build 0)  -->
<svg version="1.1" id="Capa_1" xmlns="http://www.w3.org/2000/svg" xmlns:xlink="http://www.w3.org/1999/xlink" x="0px" y="0px"
	 viewBox="0 0 1180.72 647.32" style="enable-background:new 0 0 1180.72 647.32;" xml:space="preserve">
<style type="text/css">
	.st0{fill:url(#SVGID_1_);stroke:#0000EB;stroke-miterlimit:10;}
	.st1{fill:url(#SVGID_00000045590269799086912930000001753363716352452740_);stroke:#0000EB;stroke-miterlimit:10;}
	.st2{fill:url(#SVGID_00000146481573560934861200000013205102964502318214_);stroke:#0000EB;stroke-miterlimit:10;}
	.st3{fill:url(#SVGID_00000009563775024454983380000004148123736603762826_);stroke:#0000EB;stroke-miterlimit:10;}
	.st4{fill:url(#SVGID_00000151501761646053952660000011817346966797977482_);stroke:#0000EB;stroke-miterlimit:10;}
	.st5{fill:url(#SVGID_00000101823269714556172440000009830890520795570366_);stroke:#0000EB;stroke-miterlimit:10;}
	.st6{fill:#00E7CA;}
</style>
<g>
	<linearGradient id="SVGID_1_" gradientUnits="userSpaceOnUse" x1="286.7709" y1="395.3769" x2="453.6695" y2="395.3769">
		<stop  offset="0" style="stop-color:#FFFFFF"/>
		<stop  offset="1" style="stop-color:#000000"/>
	</linearGradient>
	<path class="st0" d="M453.67,444.97v15.47c0,36.04-7.83,82.05-85.07,82.05c-57.05,0-81.83-25.77-81.83-78.28V324.13
		c0-49.68,29.23-75.86,83.2-75.86c71.16,0,82.72,39.72,82.72,77.1v17.93h-65.24v-24.37c0-15.72-3.96-23.68-17.48-23.68
		c-13.35,0-17.66,7.51-17.66,23.68v151.06c0,15.24,3,25.65,17.63,25.65c14,0,18.16-8.75,18.16-26.94v-23.73H453.67z"/>
	
		<linearGradient id="SVGID_00000052065053309664141360000014674635509364989118_" gradientUnits="userSpaceOnUse" x1="482.2527" y1="503.6231" x2="546.7801" y2="503.6231">
		<stop  offset="0" style="stop-color:#FFFFFF"/>
		<stop  offset="1" style="stop-color:#000000"/>
	</linearGradient>
	<path style="fill:url(#SVGID_00000052065053309664141360000014674635509364989118_);stroke:#0000EB;stroke-miterlimit:10;" d="
		M482.25,538.2v-69.15h64.53v69.15H482.25z"/>
	
		<linearGradient id="SVGID_00000117653675600264712780000009304317983624909228_" gradientUnits="userSpaceOnUse" x1="571.9851" y1="395.2385" x2="739.5507" y2="395.2385">
		<stop  offset="0" style="stop-color:#FFFFFF"/>
		<stop  offset="1" style="stop-color:#000000"/>
	</linearGradient>
	<path style="fill:url(#SVGID_00000117653675600264712780000009304317983624909228_);stroke:#0000EB;stroke-miterlimit:10;" d="
		M635.45,450.16v19.78c0,18.79,5.5,27.51,20.28,27.51c14.93,0,18.44-12.94,18.44-26.41c0-26.96-5.98-34.77-40.38-59.17
		c-37.95-27.26-57.46-43.39-57.46-85.47c0-40.8,15.94-78.4,79.76-78.4c67.76,0,77.76,39.18,77.76,71.88v16.44h-61.18v-17.11
		c0-17.33-3.36-25.91-16.17-25.91c-11.96,0-15.82,8.72-15.82,24.9c0,17.2,3.69,25.7,31.55,44.12
		c49.55,33.01,67.33,51.54,67.33,98.58c0,44.72-18.02,81.57-84.96,81.57c-64.27,0-82.61-32.87-82.61-75.2v-17.12H635.45z"/>
	
		<linearGradient id="SVGID_00000129895025266845896690000003214364344358969220_" gradientUnits="userSpaceOnUse" x1="765.9946" y1="503.6231" x2="830.522" y2="503.6231">
		<stop  offset="0" style="stop-color:#FFFFFF"/>
		<stop  offset="1" style="stop-color:#000000"/>
	</linearGradient>
	<path style="fill:url(#SVGID_00000129895025266845896690000003214364344358969220_);stroke:#0000EB;stroke-miterlimit:10;" d="
		M765.99,538.2v-69.15h64.53v69.15H765.99z"/>
	
		<linearGradient id="SVGID_00000024682547181018933760000003693690909017507728_" gradientUnits="userSpaceOnUse" x1="858.7963" y1="395.3769" x2="1025.6948" y2="395.3769">
		<stop  offset="0" style="stop-color:#FFFFFF"/>
		<stop  offset="1" style="stop-color:#000000"/>
	</linearGradient>
	<path style="fill:url(#SVGID_00000024682547181018933760000003693690909017507728_);stroke:#0000EB;stroke-miterlimit:10;" d="
		M1025.69,444.97v15.47c0,36.04-7.83,82.05-85.07,82.05c-57.05,0-81.83-25.77-81.83-78.28V324.13c0-49.68,29.23-75.86,83.2-75.86
		c71.16,0,82.72,39.72,82.72,77.1v17.93h-65.24v-24.37c0-15.72-3.96-23.68-17.48-23.68c-13.35,0-17.66,7.51-17.66,23.68v151.06
		c0,15.24,3,25.65,17.63,25.65c14,0,18.16-8.75,18.16-26.94v-23.73H1025.69z"/>
	
		<linearGradient id="SVGID_00000001663456709069607650000014144163531525718669_" gradientUnits="userSpaceOnUse" x1="1054.2781" y1="503.6231" x2="1118.8055" y2="503.6231">
		<stop  offset="0" style="stop-color:#FFFFFF"/>
		<stop  offset="1" style="stop-color:#000000"/>
	</linearGradient>
	<path style="fill:url(#SVGID_00000001663456709069607650000014144163531525718669_);stroke:#0000EB;stroke-miterlimit:10;" d="
		M1054.28,538.2v-69.15h64.53v69.15H1054.28z"/>
</g>
<g>
	<g>
	</g>
</g>
<g>
	<path class="st6" d="M216.67,625.5c-10.52,0-15.78-9.04-15.78-27.11c0-8.57,1.33-15.2,3.98-19.9c2.65-4.7,6.4-7.05,11.23-7.05
		c2.34,0,4.37,0.57,6.1,1.72s3,2.78,3.79,4.91l-3.53,5.44c-0.72-1.68-1.63-2.97-2.73-3.89c-1.1-0.91-2.3-1.37-3.59-1.37
		c-3.07,0-5.53,1.72-7.38,5.15c-1.85,3.43-2.78,8.31-2.78,14.63c0,13.78,3.83,20.67,11.49,20.67c2.3,0,4.58-0.74,6.82-2.22l1.1,6.52
		C222.63,624.66,219.72,625.5,216.67,625.5z"/>
	<path class="st6" d="M241.74,625.5c-3.5,0-6.21-1.78-8.15-5.33c-1.94-3.56-2.91-8.57-2.91-15.03c0-6.49,0.97-11.51,2.91-15.06
		c1.94-3.54,4.66-5.31,8.15-5.31c3.51,0,6.23,1.77,8.16,5.31c1.93,3.54,2.9,8.56,2.9,15.06c0,6.47-0.97,11.48-2.9,15.03
		C247.98,623.73,245.25,625.5,241.74,625.5z M241.74,618.47c1.86,0,3.29-1.16,4.3-3.48c1.01-2.32,1.51-5.6,1.51-9.85
		c0-4.27-0.51-7.56-1.51-9.87c-1.01-2.31-2.44-3.46-4.3-3.46s-3.29,1.16-4.3,3.46c-1.01,2.31-1.51,5.6-1.51,9.87
		c0,4.25,0.5,7.53,1.51,9.85S239.88,618.47,241.74,618.47z"/>
	<path class="st6" d="M257.95,624.76v-6.89h16.88v6.89H257.95z M258.91,592.4v-6.89h8.44l0.48,6.89H258.91z M263.58,624.76v-39.26
		h4.1l0.95,11.26v28H263.58z M268.63,607.88l-1.48-12.3h1.95c0.29-7.21,2.61-10.81,6.96-10.81c2.61,0,4.5,1.16,5.67,3.48
		s1.76,6.07,1.76,11.26h-5.01c0-2.86-0.27-4.92-0.82-6.18c-0.55-1.26-1.43-1.89-2.66-1.89c-2.15,0-3.75,1.43-4.8,4.28
		C269.16,598.56,268.63,602.62,268.63,607.88z"/>
	<path class="st6" d="M288.65,641.8v-56.29h4.58l0.48,8.3v48H288.65z M300.88,625.5c-1.94,0-3.5-0.69-4.68-2.07
		c-1.18-1.38-1.85-3.31-2.01-5.78h-2.19l1.72-11.18c0,4.05,0.51,7.12,1.54,9.22c1.02,2.1,2.53,3.15,4.52,3.15
		c2.03,0,3.58-1.12,4.62-3.37c1.05-2.25,1.57-5.57,1.57-9.96c0-4.64-0.52-8.15-1.57-10.52c-1.05-2.37-2.59-3.55-4.62-3.55
		c-1.99,0-3.49,1.05-4.52,3.15c-1.03,2.1-1.54,5.17-1.54,9.22l-1.72-11.18h1.95c0.22-2.47,0.94-4.39,2.16-5.78
		c1.22-1.38,2.81-2.07,4.78-2.07c3.32,0,5.83,1.75,7.53,5.26c1.7,3.51,2.55,8.66,2.55,15.48c0,6.57-0.85,11.54-2.55,14.92
		C306.71,623.81,304.2,625.5,300.88,625.5z"/>
	<path class="st6" d="M327.56,625.5c-3.5,0-6.21-1.78-8.15-5.33c-1.94-3.56-2.91-8.57-2.91-15.03c0-6.49,0.97-11.51,2.91-15.06
		c1.94-3.54,4.65-5.31,8.15-5.31c3.51,0,6.23,1.77,8.16,5.31c1.93,3.54,2.9,8.56,2.9,15.06c0,6.47-0.97,11.48-2.9,15.03
		C333.79,623.73,331.07,625.5,327.56,625.5z M327.56,618.47c1.86,0,3.29-1.16,4.3-3.48c1.01-2.32,1.51-5.6,1.51-9.85
		c0-4.27-0.5-7.56-1.51-9.87c-1.01-2.31-2.44-3.46-4.3-3.46c-1.86,0-3.29,1.16-4.3,3.46c-1.01,2.31-1.51,5.6-1.51,9.87
		c0,4.25,0.5,7.53,1.51,9.85C324.26,617.31,325.7,618.47,327.56,618.47z"/>
	<path class="st6" d="M343.76,624.76v-6.89h16.88v6.89H343.76z M344.72,592.4v-6.89h8.44l0.48,6.89H344.72z M349.39,624.76v-39.26
		h4.1l0.95,11.26v28H349.39z M354.44,607.88l-1.48-12.3h1.95c0.29-7.21,2.61-10.81,6.96-10.81c2.61,0,4.5,1.16,5.67,3.48
		c1.18,2.32,1.76,6.07,1.76,11.26h-5.01c0-2.86-0.27-4.92-0.82-6.18c-0.55-1.26-1.43-1.89-2.66-1.89c-2.15,0-3.75,1.43-4.8,4.28
		C354.97,598.56,354.44,602.62,354.44,607.88z"/>
	<path class="st6" d="M381.04,625.5c-2.64,0-4.68-0.99-6.13-2.96c-1.45-1.98-2.17-4.77-2.17-8.37c0-4.15,1-7.33,2.99-9.56
		c1.99-2.22,4.81-3.33,8.45-3.33c1.51,0,2.86,0.14,4.04,0.43c1.19,0.28,2.24,0.71,3.16,1.28l-1.05,5.33
		c-1.06-0.37-2.11-0.59-3.12-0.65c-1.02-0.06-2.06-0.09-3.12-0.09c-4.39,0-6.58,2.07-6.58,6.22c0,1.73,0.38,3.06,1.13,4
		c0.76,0.94,1.82,1.41,3.21,1.41c1.57,0,2.89-0.42,3.95-1.26c1.06-0.84,1.85-1.91,2.37-3.22c0.52-1.31,0.79-2.65,0.79-4.04v-4.3
		l1.48,10.07h-2l0.81-1.19c0,2.27-0.34,4.17-1.01,5.68c-0.67,1.52-1.63,2.65-2.85,3.41C384.16,625.13,382.71,625.5,381.04,625.5z
		 M389.96,625.13l-0.33-11.63l-0.67-3.26V600.1c0-2.62-0.59-4.54-1.78-5.76c-1.18-1.22-2.94-1.88-5.28-1.98l-6.05-0.26l0.48-6.96
		l5.1,0.11c4.18,0.1,7.28,1.5,9.31,4.2c2.03,2.7,3.04,6.65,3.04,11.83v16.37l4.29,0.81v6.3L389.96,625.13z"/>
	<path class="st6" d="M415.8,625.5c-4.31,0-7.63-1.76-9.98-5.28c-2.34-3.52-3.52-8.57-3.52-15.17c0-6.42,1.11-11.41,3.32-14.96
		c2.22-3.55,5.38-5.33,9.5-5.33c2.46,0,4.57,0.71,6.33,2.13c1.76,1.42,3.01,3.43,3.75,6.02l-3.88,4.56c-0.72-1.8-1.63-3.2-2.74-4.18
		c-1.11-0.99-2.33-1.48-3.65-1.48c-2.38,0-4.23,1.12-5.55,3.35c-1.32,2.23-1.98,5.41-1.98,9.53c0,4.47,0.78,7.88,2.32,10.24
		c1.55,2.36,3.76,3.54,6.64,3.54c1.18,0,2.35-0.09,3.53-0.26c1.18-0.17,2.32-0.41,3.43-0.7l0.57,6.89c-1.3,0.44-2.65,0.74-4.04,0.89
		C418.47,625.43,417.12,625.5,415.8,625.5z"/>
	<path class="st6" d="M431.48,624.76v-6.89h10.11v6.89H431.48z M432.91,592.4v-6.89h13.25v6.89H432.91z M443.47,579.29
		c-0.97,0-1.8-0.54-2.49-1.61c-0.69-1.07-1.04-2.36-1.04-3.87c0-1.53,0.35-2.83,1.04-3.89c0.69-1.06,1.52-1.59,2.49-1.59
		c0.99,0,1.82,0.53,2.5,1.59c0.68,1.06,1.03,2.36,1.03,3.89c0,1.51-0.34,2.8-1.03,3.87C445.29,578.75,444.46,579.29,443.47,579.29z
		 M441.11,624.76v-37.03h5.05v37.03H441.11z M445.69,624.76v-6.89h8.25v6.89H445.69z"/>
	<path class="st6" d="M470.57,625.5c-3.5,0-6.21-1.78-8.15-5.33c-1.94-3.56-2.91-8.57-2.91-15.03c0-6.49,0.97-11.51,2.91-15.06
		c1.94-3.54,4.65-5.31,8.15-5.31c3.51,0,6.23,1.77,8.16,5.31c1.93,3.54,2.9,8.56,2.9,15.06c0,6.47-0.97,11.48-2.9,15.03
		C476.81,623.73,474.08,625.5,470.57,625.5z M470.57,618.47c1.86,0,3.29-1.16,4.3-3.48c1.01-2.32,1.51-5.6,1.51-9.85
		c0-4.27-0.5-7.56-1.51-9.87c-1.01-2.31-2.44-3.46-4.3-3.46c-1.86,0-3.29,1.16-4.3,3.46c-1.01,2.31-1.51,5.6-1.51,9.87
		c0,4.25,0.5,7.53,1.51,9.85C467.28,617.31,468.71,618.47,470.57,618.47z M468.16,578.55l4.05-14.07h5.05l-4.53,14.07H468.16z"/>
	<path class="st6" d="M488.88,624.76v-39.26h4.58l0.48,8.3v30.96H488.88z M504.42,624.76v-25.55c0-2.37-0.4-4.2-1.19-5.48
		c-0.8-1.28-1.91-1.93-3.34-1.93c-3.97,0-5.96,3.63-5.96,10.89l-1.48-10.07h1.95c0.14-2.64,0.76-4.61,1.86-5.91
		c1.1-1.3,2.7-1.94,4.81-1.94c2.67,0,4.74,1.26,6.2,3.78c1.46,2.52,2.19,6.07,2.19,10.66v25.55H504.42z"/>
	<path class="st6" d="M555.22,625.5c-1.92,0-3.72-0.24-5.4-0.72c-1.68-0.48-3.23-1.2-4.66-2.17l0.62-7.48
		c1.75,1.16,3.44,2.04,5.07,2.65c1.63,0.61,3.21,0.91,4.75,0.91c2.23,0,3.88-0.6,4.96-1.82c1.08-1.21,1.62-3.05,1.62-5.52
		c0-3.13-1.03-5.43-3.1-6.89l-5.86-4.15c-2.31-1.63-4.07-3.59-5.31-5.89c-1.23-2.3-1.85-5.15-1.85-8.55c0-4.59,0.89-8.15,2.67-10.67
		c1.78-2.52,4.3-3.78,7.55-3.78c2.27,0,4.28,0.52,6.03,1.55c1.75,1.04,3.43,2.73,5.05,5.07l-3.34,5.26
		c-1.4-1.78-2.71-3.07-3.92-3.87c-1.22-0.8-2.48-1.2-3.8-1.2c-1.64,0-2.9,0.61-3.8,1.83c-0.9,1.22-1.35,3.03-1.35,5.43
		c0,1.7,0.29,3.09,0.88,4.17s1.45,2.03,2.6,2.87l4.96,3.63c2.51,1.83,4.42,3.89,5.72,6.18c1.3,2.3,1.95,5.25,1.95,8.85
		c0,4.77-1,8.34-2.99,10.72C562.29,624.31,559.27,625.5,555.22,625.5z"/>
	<path class="st6" d="M584.99,625.5c-3.5,0-6.21-1.78-8.15-5.33c-1.94-3.56-2.91-8.57-2.91-15.03c0-6.49,0.97-11.51,2.91-15.06
		c1.94-3.54,4.65-5.31,8.15-5.31c3.51,0,6.23,1.77,8.16,5.31c1.93,3.54,2.9,8.56,2.9,15.06c0,6.47-0.97,11.48-2.9,15.03
		C591.22,623.73,588.5,625.5,584.99,625.5z M584.99,618.47c1.86,0,3.29-1.16,4.3-3.48c1.01-2.32,1.51-5.6,1.51-9.85
		c0-4.27-0.5-7.56-1.51-9.87c-1.01-2.31-2.44-3.46-4.3-3.46c-1.86,0-3.29,1.16-4.3,3.46c-1.01,2.31-1.51,5.6-1.51,9.87
		c0,4.25,0.5,7.53,1.51,9.85C581.69,617.31,583.13,618.47,584.99,618.47z"/>
	<path class="st6" d="M616.02,625.5c-4.31,0-7.63-1.76-9.97-5.28c-2.34-3.52-3.52-8.57-3.52-15.17c0-6.42,1.11-11.41,3.32-14.96
		c2.22-3.55,5.38-5.33,9.5-5.33c2.46,0,4.57,0.71,6.33,2.13c1.76,1.42,3.01,3.43,3.75,6.02l-3.88,4.56c-0.72-1.8-1.63-3.2-2.74-4.18
		c-1.11-0.99-2.33-1.48-3.65-1.48c-2.38,0-4.23,1.12-5.55,3.35c-1.32,2.23-1.98,5.41-1.98,9.53c0,4.47,0.78,7.88,2.32,10.24
		c1.55,2.36,3.76,3.54,6.64,3.54c1.18,0,2.35-0.09,3.53-0.26c1.18-0.17,2.32-0.41,3.43-0.7l0.57,6.89c-1.3,0.44-2.65,0.74-4.04,0.89
		C618.7,625.43,617.34,625.5,616.02,625.5z"/>
	<path class="st6" d="M631.71,624.76v-6.89h10.11v6.89H631.71z M633.14,592.4v-6.89h13.25v6.89H633.14z M643.7,579.29
		c-0.97,0-1.8-0.54-2.49-1.61c-0.69-1.07-1.04-2.36-1.04-3.87c0-1.53,0.35-2.83,1.04-3.89c0.69-1.06,1.52-1.59,2.49-1.59
		c0.99,0,1.82,0.53,2.5,1.59c0.68,1.06,1.03,2.36,1.03,3.89c0,1.51-0.34,2.8-1.03,3.87C645.52,578.75,644.68,579.29,643.7,579.29z
		 M641.34,624.76v-37.03h5.05v37.03H641.34z M645.91,624.76v-6.89h8.25v6.89H645.91z"/>
	<path class="st6" d="M667.08,625.5c-2.64,0-4.68-0.99-6.13-2.96c-1.45-1.98-2.17-4.77-2.17-8.37c0-4.15,1-7.33,2.99-9.56
		c1.99-2.22,4.81-3.33,8.45-3.33c1.51,0,2.86,0.14,4.04,0.43c1.19,0.28,2.24,0.71,3.16,1.28l-1.05,5.33
		c-1.06-0.37-2.11-0.59-3.12-0.65c-1.02-0.06-2.06-0.09-3.12-0.09c-4.39,0-6.58,2.07-6.58,6.22c0,1.73,0.38,3.06,1.13,4
		c0.76,0.94,1.82,1.41,3.21,1.41c1.57,0,2.89-0.42,3.95-1.26c1.06-0.84,1.85-1.91,2.37-3.22s0.79-2.65,0.79-4.04v-4.3l1.48,10.07h-2
		l0.81-1.19c0,2.27-0.34,4.17-1.01,5.68c-0.67,1.52-1.63,2.65-2.85,3.41C670.2,625.13,668.75,625.5,667.08,625.5z M676,625.13
		l-0.33-11.63l-0.67-3.26V600.1c0-2.62-0.59-4.54-1.78-5.76c-1.18-1.22-2.94-1.88-5.28-1.98l-6.05-0.26l0.48-6.96l5.1,0.11
		c4.18,0.1,7.28,1.5,9.31,4.2c2.03,2.7,3.04,6.65,3.04,11.83v16.37l4.29,0.81v6.3L676,625.13z"/>
	<path class="st6" d="M687.44,576.1v-6.89h7.87v6.89H687.44z M703.17,625.5c-2.92,0-5.04-1.23-6.34-3.7
		c-1.3-2.47-1.95-6.42-1.95-11.85v-40.74h5.05v40.37c0,2.07,0.13,3.76,0.38,5.07c0.25,1.31,0.75,2.27,1.49,2.89
		c0.74,0.62,1.83,0.93,3.28,0.93c1.32,0,3-0.47,5.05-1.41l0.57,6.89c-1.29,0.54-2.52,0.94-3.71,1.18
		C705.81,625.38,704.54,625.5,703.17,625.5z"/>
	<path class="st6" d="M754.68,625.5c-3.31,0-5.81-1.69-7.52-5.07c-1.71-3.38-2.56-8.36-2.56-14.92c0-6.81,0.85-11.97,2.56-15.48
		c1.71-3.51,4.21-5.26,7.52-5.26c1.89,0,3.43,0.69,4.61,2.07c1.18,1.38,1.88,3.31,2.09,5.78h1.95l-1.48,11.18
		c0-4.05-0.51-7.12-1.54-9.22c-1.02-2.1-2.53-3.15-4.52-3.15c-2.03,0-3.58,1.18-4.62,3.55c-1.05,2.37-1.57,5.88-1.57,10.52
		c0,4.39,0.52,7.72,1.57,9.96c1.05,2.25,2.59,3.37,4.62,3.37c1.99,0,3.49-1.05,4.52-3.15c1.02-2.1,1.54-5.17,1.54-9.22l1.72,11.18
		h-2.19c-0.16,2.47-0.83,4.39-2.01,5.78C758.18,624.81,756.62,625.5,754.68,625.5z M762.38,625.13l-0.53-7.7v-48.22h5.05v55.55
		L762.38,625.13z"/>
	<path class="st6" d="M787.41,625.5c-4.31,0-7.63-1.76-9.98-5.28c-2.34-3.52-3.52-8.57-3.52-15.17c0-6.42,0.99-11.41,2.98-14.96
		c1.99-3.55,4.79-5.33,8.41-5.33c3.42,0,6.06,1.6,7.93,4.81c1.87,3.21,2.8,7.88,2.8,14c0,1.8-0.05,3.48-0.14,5.04h-17.74v-6h13.3
		c0-3.53-0.54-6.24-1.62-8.13c-1.08-1.89-2.58-2.83-4.48-2.83c-2.15,0-3.81,1.14-4.99,3.41c-1.18,2.27-1.78,5.48-1.78,9.63
		c0,4.54,0.81,8,2.44,10.37c1.63,2.37,3.95,3.55,6.95,3.55c1.05,0,2.08-0.09,3.1-0.28c1.02-0.18,2.05-0.44,3.1-0.76l0.62,6.89
		c-1.49,0.44-2.86,0.73-4.1,0.85C789.46,625.44,788.36,625.5,787.41,625.5z"/>
	<path class="st6" d="M845.95,625.5c-10.52,0-15.78-9.04-15.78-27.11c0-8.57,1.33-15.2,3.98-19.9c2.65-4.7,6.4-7.05,11.23-7.05
		c2.34,0,4.37,0.57,6.1,1.72c1.73,1.15,3,2.78,3.79,4.91l-3.53,5.44c-0.72-1.68-1.63-2.97-2.73-3.89c-1.1-0.91-2.3-1.37-3.59-1.37
		c-3.07,0-5.53,1.72-7.38,5.15c-1.85,3.43-2.78,8.31-2.78,14.63c0,13.78,3.83,20.67,11.49,20.67c2.3,0,4.58-0.74,6.82-2.22l1.1,6.52
		C851.91,624.66,849,625.5,845.95,625.5z"/>
	<path class="st6" d="M868.55,625.5c-2.66,0-4.71-1.23-6.16-3.68c-1.45-2.46-2.18-5.92-2.18-10.39v-25.92h5.05v25.92
		c0,2.25,0.41,3.98,1.24,5.2c0.83,1.22,1.99,1.83,3.48,1.83c1.84,0,3.23-0.91,4.17-2.72c0.94-1.81,1.41-4.86,1.41-9.13l1.29,10.59
		h-1.67c-0.4,2.67-1.18,4.72-2.34,6.15C871.68,624.79,870.25,625.5,868.55,625.5z M875.56,613.65v-28.15h5.05v25.92L875.56,613.65z
		 M875.99,625.13l-0.43-9.41v-6.89h5.05v8.81l3.48,0.81v6.3L875.99,625.13z"/>
	<path class="st6" d="M889.33,624.76v-39.26h4.58l0.48,8.3v30.96H889.33z M904.87,624.76v-25.55c0-2.37-0.4-4.2-1.19-5.48
		c-0.8-1.28-1.91-1.93-3.34-1.93c-3.97,0-5.96,3.63-5.96,10.89l-1.48-10.07h1.95c0.14-2.64,0.76-4.61,1.86-5.91
		c1.1-1.3,2.7-1.94,4.81-1.94c2.67,0,4.74,1.26,6.2,3.78c1.46,2.52,2.19,6.07,2.19,10.66v25.55H904.87z"/>
	<path class="st6" d="M926.3,625.5c-3.31,0-5.81-1.69-7.52-5.07c-1.71-3.38-2.56-8.36-2.56-14.92c0-6.81,0.85-11.97,2.56-15.48
		c1.71-3.51,4.21-5.26,7.52-5.26c1.89,0,3.43,0.69,4.61,2.07c1.18,1.38,1.88,3.31,2.09,5.78h1.95l-1.48,11.18
		c0-4.05-0.51-7.12-1.54-9.22c-1.02-2.1-2.53-3.15-4.52-3.15c-2.03,0-3.58,1.18-4.62,3.55c-1.05,2.37-1.57,5.88-1.57,10.52
		c0,4.39,0.52,7.72,1.57,9.96c1.05,2.25,2.59,3.37,4.62,3.37c1.99,0,3.49-1.05,4.52-3.15c1.02-2.1,1.54-5.17,1.54-9.22l1.72,11.18
		H933c-0.16,2.47-0.83,4.39-2.01,5.78C929.8,624.81,928.24,625.5,926.3,625.5z M934,625.13l-0.53-7.7v-48.22h5.05v55.55L934,625.13z
		"/>
	<path class="st6" d="M946.35,624.76v-6.89h10.11v6.89H946.35z M947.78,592.4v-6.89h13.25v6.89H947.78z M958.34,579.29
		c-0.97,0-1.8-0.54-2.49-1.61c-0.69-1.07-1.04-2.36-1.04-3.87c0-1.53,0.35-2.83,1.04-3.89c0.69-1.06,1.52-1.59,2.49-1.59
		c0.99,0,1.82,0.53,2.5,1.59c0.68,1.06,1.03,2.36,1.03,3.89c0,1.51-0.34,2.8-1.03,3.87C960.16,578.75,959.33,579.29,958.34,579.29z
		 M955.98,624.76v-37.03h5.05v37.03H955.98z M960.56,624.76v-6.89h8.25v6.89H960.56z"/>
	<path class="st6" d="M975.14,624.76v-39.26h4.58l0.48,8.3v30.96H975.14z M990.68,624.76v-25.55c0-2.37-0.4-4.2-1.19-5.48
		c-0.8-1.28-1.91-1.93-3.34-1.93c-3.97,0-5.96,3.63-5.96,10.89l-1.48-10.07h1.95c0.14-2.64,0.76-4.61,1.86-5.91
		c1.1-1.3,2.7-1.94,4.81-1.94c2.67,0,4.74,1.26,6.2,3.78c1.46,2.52,2.19,6.07,2.19,10.66v25.55H990.68z"/>
	<path class="st6" d="M1010.33,625.5c-2.64,0-4.68-0.99-6.13-2.96c-1.45-1.98-2.17-4.77-2.17-8.37c0-4.15,1-7.33,2.99-9.56
		c1.99-2.22,4.81-3.33,8.45-3.33c1.51,0,2.86,0.14,4.04,0.43c1.19,0.28,2.24,0.71,3.16,1.28l-1.05,5.33
		c-1.06-0.37-2.11-0.59-3.12-0.65c-1.02-0.06-2.06-0.09-3.12-0.09c-4.39,0-6.58,2.07-6.58,6.22c0,1.73,0.38,3.06,1.13,4
		c0.76,0.94,1.82,1.41,3.21,1.41c1.57,0,2.89-0.42,3.95-1.26c1.06-0.84,1.85-1.91,2.37-3.22s0.79-2.65,0.79-4.04v-4.3l1.48,10.07h-2
		l0.81-1.19c0,2.27-0.34,4.17-1.01,5.68c-0.67,1.52-1.63,2.65-2.85,3.41C1013.44,625.13,1011.99,625.5,1010.33,625.5z
		 M1019.24,625.13l-0.33-11.63l-0.67-3.26V600.1c0-2.62-0.59-4.54-1.78-5.76c-1.18-1.22-2.94-1.88-5.28-1.98l-6.05-0.26l0.48-6.96
		l5.1,0.11c4.18,0.1,7.28,1.5,9.31,4.2c2.03,2.7,3.04,6.65,3.04,11.83v16.37l4.29,0.81v6.3L1019.24,625.13z"/>
	<path class="st6" d="M1031.02,624.76v-39.26h4.48l0.57,8.3v30.96H1031.02z M1040.5,624.76v-30.74c0-2.22-0.67-3.33-2-3.33
		c-1.62,0-2.43,1.78-2.43,5.33l-1.48-5.63h1.62c0.19-3.75,1.64-5.63,4.34-5.63c1.32,0,2.35,0.7,3.11,2.11
		c0.76,1.41,1.13,3.54,1.13,6.41v31.48H1040.5z M1049.23,624.76v-30c0-2.72-0.65-4.07-1.95-4.07c-1.65,0-2.48,1.78-2.48,5.33
		l-1.72-5.63h1.96c0.08-1.53,0.47-2.85,1.18-3.96c0.71-1.11,1.73-1.67,3.06-1.67c1.75,0,3.02,0.73,3.81,2.18
		c0.8,1.46,1.19,3.82,1.19,7.07v30.74H1049.23z"/>
	<path class="st6" d="M1067.54,625.5c-2.64,0-4.68-0.99-6.13-2.96c-1.45-1.98-2.17-4.77-2.17-8.37c0-4.15,1-7.33,2.99-9.56
		c1.99-2.22,4.81-3.33,8.45-3.33c1.51,0,2.86,0.14,4.04,0.43c1.19,0.28,2.24,0.71,3.16,1.28l-1.05,5.33
		c-1.06-0.37-2.11-0.59-3.12-0.65c-1.02-0.06-2.06-0.09-3.12-0.09c-4.39,0-6.58,2.07-6.58,6.22c0,1.73,0.38,3.06,1.13,4
		c0.76,0.94,1.82,1.41,3.21,1.41c1.57,0,2.89-0.42,3.95-1.26c1.06-0.84,1.85-1.91,2.37-3.22s0.79-2.65,0.79-4.04v-4.3l1.48,10.07h-2
		l0.81-1.19c0,2.27-0.34,4.17-1.01,5.68c-0.67,1.52-1.63,2.65-2.85,3.41C1070.65,625.13,1069.2,625.5,1067.54,625.5z
		 M1076.45,625.13l-0.33-11.63l-0.67-3.26V600.1c0-2.62-0.59-4.54-1.78-5.76c-1.18-1.22-2.94-1.88-5.28-1.98l-6.05-0.26l0.48-6.96
		l5.1,0.11c4.18,0.1,7.28,1.5,9.31,4.2c2.03,2.7,3.04,6.65,3.04,11.83v16.37l4.29,0.81v6.3L1076.45,625.13z"/>
	<path class="st6" d="M1087.46,624.76v-6.89h16.88v6.89H1087.46z M1088.42,592.4v-6.89h8.44l0.48,6.89H1088.42z M1093.09,624.76
		v-39.26h4.1l0.95,11.26v28H1093.09z M1098.14,607.88l-1.48-12.3h1.95c0.29-7.21,2.61-10.81,6.96-10.81c2.61,0,4.5,1.16,5.67,3.48
		c1.18,2.32,1.76,6.07,1.76,11.26h-5.01c0-2.86-0.27-4.92-0.82-6.18c-0.55-1.26-1.43-1.89-2.66-1.89c-2.15,0-3.75,1.43-4.8,4.28
		C1098.67,598.56,1098.14,602.62,1098.14,607.88z"/>
	<path class="st6" d="M1130.89,625.5c-4.31,0-7.63-1.76-9.98-5.28c-2.34-3.52-3.52-8.57-3.52-15.17c0-6.42,1.11-11.41,3.32-14.96
		c2.22-3.55,5.38-5.33,9.5-5.33c2.46,0,4.57,0.71,6.33,2.13c1.76,1.42,3.01,3.43,3.75,6.02l-3.88,4.56c-0.72-1.8-1.63-3.2-2.74-4.18
		c-1.11-0.99-2.33-1.48-3.65-1.48c-2.38,0-4.23,1.12-5.55,3.35c-1.32,2.23-1.98,5.41-1.98,9.53c0,4.47,0.78,7.88,2.32,10.24
		c1.55,2.36,3.76,3.54,6.64,3.54c1.18,0,2.35-0.09,3.53-0.26c1.18-0.17,2.32-0.41,3.43-0.7l0.57,6.89c-1.3,0.44-2.65,0.74-4.04,0.89
		C1133.57,625.43,1132.21,625.5,1130.89,625.5z"/>
	<path class="st6" d="M1153.35,625.5c-2.64,0-4.68-0.99-6.13-2.96c-1.45-1.98-2.17-4.77-2.17-8.37c0-4.15,1-7.33,2.99-9.56
		c1.99-2.22,4.81-3.33,8.45-3.33c1.51,0,2.86,0.14,4.04,0.43c1.19,0.28,2.24,0.71,3.16,1.28l-1.05,5.33
		c-1.06-0.37-2.11-0.59-3.12-0.65c-1.02-0.06-2.06-0.09-3.12-0.09c-4.39,0-6.58,2.07-6.58,6.22c0,1.73,0.38,3.06,1.13,4
		c0.76,0.94,1.82,1.41,3.21,1.41c1.57,0,2.89-0.42,3.95-1.26c1.06-0.84,1.85-1.91,2.37-3.22c0.52-1.31,0.79-2.65,0.79-4.04v-4.3
		l1.48,10.07h-2l0.81-1.19c0,2.27-0.34,4.17-1.01,5.68c-0.67,1.52-1.63,2.65-2.85,3.41C1156.46,625.13,1155.01,625.5,1153.35,625.5z
		 M1162.26,625.13l-0.33-11.63l-0.67-3.26V600.1c0-2.62-0.59-4.54-1.78-5.76c-1.18-1.22-2.94-1.88-5.28-1.98l-6.05-0.26l0.48-6.96
		l5.1,0.11c4.18,0.1,7.28,1.5,9.31,4.2c2.03,2.7,3.04,6.65,3.04,11.83v16.37l4.29,0.81v6.3L1162.26,625.13z"/>
</g>
</svg>
