<?xml version="1.0" encoding="utf-8"?>
<!-- Generator: Adobe Illustrator 26.4.1, SVG Export Plug-In . SVG Version: 6.00 Build 0)  -->
<svg version="1.1" id="Capa_1" xmlns="http://www.w3.org/2000/svg" xmlns:xlink="http://www.w3.org/1999/xlink" x="0px" y="0px"
	 viewBox="0 0 1280 1024" style="enable-background:new 0 0 1280 1024;" xml:space="preserve">
<style type="text/css">
	.st0{fill:#00008E;stroke:#0000EB;stroke-miterlimit:10;}
</style>
<g>
	<g>
		<path class="st0" d="M589.28,330.89v3.25c0,7.56-2.35,17.22-25.56,17.22c-17.15,0-24.59-5.41-24.59-16.43v-29.4
			c0-10.43,8.78-15.92,25-15.92c21.39,0,24.86,8.34,24.86,16.18v3.76h-19.61v-5.12c0-3.3-1.19-4.97-5.25-4.97
			c-4.01,0-5.31,1.58-5.31,4.97v31.71c0,3.2,0.9,5.38,5.3,5.38c4.21,0,5.46-1.84,5.46-5.65v-4.98H589.28z"/>
		<path class="st0" d="M596.51,350.46v-14.51h19.39v14.51H596.51z"/>
		<path class="st0" d="M642.55,331.98v4.15c0,3.94,1.65,5.77,6.09,5.77c4.49,0,5.54-2.71,5.54-5.54c0-5.66-1.8-7.3-12.13-12.42
			c-11.4-5.72-17.27-9.11-17.27-17.94c0-8.56,4.79-16.46,23.97-16.46c20.36,0,23.37,8.22,23.37,15.09v3.45h-18.39v-3.59
			c0-3.64-1.01-5.44-4.86-5.44c-3.59,0-4.75,1.83-4.75,5.23c0,3.61,1.11,5.39,9.48,9.26c14.89,6.93,20.23,10.82,20.23,20.69
			c0,9.39-5.42,17.12-25.53,17.12c-19.32,0-24.83-6.9-24.83-15.78v-3.59H642.55z"/>
		<path class="st0" d="M681.78,350.46v-14.51h19.39v14.51H681.78z"/>
		<path class="st0" d="M760.73,330.89v3.25c0,7.56-2.35,17.22-25.56,17.22c-17.15,0-24.59-5.41-24.59-16.43v-29.4
			c0-10.43,8.78-15.92,25-15.92c21.39,0,24.86,8.34,24.86,16.18v3.76h-19.61v-5.12c0-3.3-1.19-4.97-5.25-4.97
			c-4.01,0-5.31,1.58-5.31,4.97v31.71c0,3.2,0.9,5.38,5.3,5.38c4.21,0,5.46-1.84,5.46-5.65v-4.98H760.73z"/>
		<path class="st0" d="M767.96,350.46v-14.51h19.39v14.51H767.96z"/>
	</g>
</g>
<g>
	<g>
	</g>
</g>
<g>
	<g>
		<path d="M429.58,400.64c-5.17,0-7.76-4.73-7.76-14.2c0-4.49,0.65-7.97,1.96-10.43s3.14-3.7,5.52-3.7c1.15,0,2.15,0.3,3,0.9
			s1.47,1.46,1.86,2.57l-1.73,2.85c-0.35-0.88-0.8-1.56-1.34-2.04c-0.54-0.48-1.13-0.72-1.76-0.72c-1.51,0-2.72,0.9-3.63,2.7
			c-0.91,1.8-1.37,4.35-1.37,7.66c0,7.22,1.88,10.83,5.65,10.83c1.13,0,2.25-0.39,3.35-1.16l0.54,3.42
			C432.51,400.2,431.08,400.64,429.58,400.64z"/>
		<path d="M441.91,400.64c-1.72,0-3.05-0.93-4.01-2.79s-1.43-4.49-1.43-7.88c0-3.4,0.48-6.03,1.43-7.89
			c0.95-1.86,2.29-2.78,4.01-2.78c1.73,0,3.06,0.93,4.01,2.78c0.95,1.86,1.42,4.49,1.42,7.89c0,3.39-0.47,6.02-1.42,7.88
			S443.64,400.64,441.91,400.64z M441.91,396.95c0.91,0,1.62-0.61,2.12-1.82s0.74-2.94,0.74-5.16c0-2.24-0.25-3.96-0.74-5.17
			s-1.2-1.81-2.12-1.81s-1.62,0.6-2.12,1.81s-0.74,2.93-0.74,5.17c0,2.23,0.25,3.95,0.74,5.16S441,396.95,441.91,396.95z"/>
		<path d="M449.88,400.25v-3.61h8.3v3.61H449.88z M450.35,383.29v-3.61h4.15l0.23,3.61H450.35z M452.65,400.25v-20.57h2.02l0.47,5.9
			v14.67H452.65z M455.13,391.4l-0.73-6.44h0.96c0.14-3.78,1.28-5.67,3.42-5.67c1.28,0,2.21,0.61,2.79,1.82
			c0.58,1.22,0.87,3.18,0.87,5.9h-2.46c0-1.5-0.13-2.58-0.4-3.24c-0.27-0.66-0.71-0.99-1.31-0.99c-1.05,0-1.84,0.75-2.36,2.24
			S455.13,388.64,455.13,391.4z"/>
		<path d="M464.98,409.17v-29.5h2.25l0.23,4.35v25.15H464.98z M470.99,400.64c-0.95,0-1.72-0.36-2.3-1.09
			c-0.58-0.72-0.91-1.73-0.99-3.03h-1.08l0.84-5.86c0,2.12,0.25,3.73,0.76,4.83s1.24,1.65,2.22,1.65c1,0,1.76-0.59,2.27-1.77
			c0.52-1.18,0.77-2.92,0.77-5.22c0-2.43-0.26-4.27-0.77-5.51c-0.52-1.24-1.27-1.86-2.27-1.86c-0.98,0-1.72,0.55-2.22,1.65
			s-0.76,2.71-0.76,4.83l-0.84-5.86h0.96c0.11-1.29,0.46-2.3,1.06-3.03s1.38-1.09,2.35-1.09c1.63,0,2.87,0.92,3.7,2.76
			s1.25,4.54,1.25,8.11c0,3.44-0.42,6.05-1.25,7.82C473.85,399.75,472.62,400.64,470.99,400.64z"/>
		<path d="M484.1,400.64c-1.72,0-3.05-0.93-4.01-2.79s-1.43-4.49-1.43-7.88c0-3.4,0.48-6.03,1.43-7.89
			c0.95-1.86,2.29-2.78,4.01-2.78c1.73,0,3.06,0.93,4.01,2.78c0.95,1.86,1.42,4.49,1.42,7.89c0,3.39-0.47,6.02-1.42,7.88
			S485.83,400.64,484.1,400.64z M484.1,396.95c0.91,0,1.62-0.61,2.12-1.82s0.74-2.94,0.74-5.16c0-2.24-0.25-3.96-0.74-5.17
			s-1.2-1.81-2.12-1.81s-1.62,0.6-2.12,1.81s-0.74,2.93-0.74,5.17c0,2.23,0.25,3.95,0.74,5.16S483.19,396.95,484.1,396.95z"/>
		<path d="M492.07,400.25v-3.61h8.3v3.61H492.07z M492.54,383.29v-3.61h4.15l0.23,3.61H492.54z M494.83,400.25v-20.57h2.02l0.47,5.9
			v14.67H494.83z M497.32,391.4l-0.73-6.44h0.96c0.14-3.78,1.28-5.67,3.42-5.67c1.28,0,2.21,0.61,2.79,1.82
			c0.58,1.22,0.87,3.18,0.87,5.9h-2.46c0-1.5-0.13-2.58-0.4-3.24c-0.27-0.66-0.71-0.99-1.31-0.99c-1.05,0-1.84,0.75-2.36,2.24
			S497.32,388.64,497.32,391.4z"/>
		<path d="M510.4,400.64c-1.3,0-2.3-0.52-3.01-1.55c-0.71-1.04-1.07-2.5-1.07-4.39c0-2.17,0.49-3.84,1.47-5.01
			c0.98-1.16,2.37-1.75,4.15-1.75c0.74,0,1.4,0.07,1.99,0.22s1.1,0.37,1.55,0.67l-0.52,2.79c-0.52-0.19-1.04-0.31-1.54-0.34
			s-1.01-0.05-1.54-0.05c-2.16,0-3.23,1.09-3.23,3.26c0,0.91,0.19,1.6,0.56,2.1s0.9,0.74,1.58,0.74c0.77,0,1.42-0.22,1.94-0.66
			s0.91-1,1.17-1.69c0.26-0.69,0.39-1.39,0.39-2.11v-2.25l0.73,5.28h-0.98l0.4-0.62c0,1.19-0.17,2.18-0.5,2.98
			c-0.33,0.8-0.8,1.39-1.4,1.79S511.22,400.64,510.4,400.64z M514.78,400.44l-0.16-6.09l-0.33-1.71v-5.32
			c0-1.37-0.29-2.38-0.87-3.02c-0.58-0.64-1.45-0.99-2.6-1.04l-2.98-0.14l0.23-3.65l2.51,0.06c2.05,0.05,3.58,0.79,4.58,2.2
			s1.49,3.48,1.49,6.2v8.58l2.11,0.43v3.3L514.78,400.44z"/>
		<path d="M527.48,400.64c-2.12,0-3.75-0.92-4.9-2.77c-1.15-1.84-1.73-4.49-1.73-7.95c0-3.36,0.54-5.98,1.63-7.84
			s2.65-2.79,4.67-2.79c1.21,0,2.25,0.37,3.11,1.12c0.86,0.74,1.48,1.79,1.85,3.15l-1.91,2.39c-0.35-0.94-0.8-1.67-1.35-2.19
			s-1.14-0.78-1.79-0.78c-1.17,0-2.08,0.59-2.73,1.76s-0.97,2.84-0.97,5c0,2.34,0.38,4.13,1.14,5.37s1.85,1.85,3.26,1.85
			c0.58,0,1.16-0.04,1.73-0.14c0.58-0.09,1.14-0.21,1.69-0.37l0.28,3.61c-0.64,0.23-1.3,0.39-1.99,0.47S528.13,400.64,527.48,400.64
			z"/>
		<path d="M535.19,400.25v-3.61h4.97v3.61H535.19z M535.9,383.29v-3.61h6.52v3.61H535.9z M541.09,376.42
			c-0.48,0-0.88-0.28-1.22-0.84c-0.34-0.56-0.51-1.24-0.51-2.03c0-0.8,0.17-1.48,0.51-2.04s0.75-0.83,1.22-0.83
			c0.48,0,0.89,0.28,1.23,0.83s0.5,1.24,0.5,2.04c0,0.79-0.17,1.47-0.5,2.03C541.98,376.14,541.57,376.42,541.09,376.42z
			 M539.93,400.25v-19.4h2.48v19.4H539.93z M542.18,400.25v-3.61h4.05v3.61H542.18z"/>
		<path d="M554.41,400.64c-1.72,0-3.05-0.93-4.01-2.79s-1.43-4.49-1.43-7.88c0-3.4,0.48-6.03,1.43-7.89
			c0.95-1.86,2.29-2.78,4.01-2.78c1.73,0,3.06,0.93,4.01,2.78c0.95,1.86,1.42,4.49,1.42,7.89c0,3.39-0.47,6.02-1.42,7.88
			S556.14,400.64,554.41,400.64z M554.41,396.95c0.91,0,1.62-0.61,2.12-1.82s0.74-2.94,0.74-5.16c0-2.24-0.25-3.96-0.74-5.17
			s-1.2-1.81-2.12-1.81s-1.62,0.6-2.12,1.81s-0.74,2.93-0.74,5.17c0,2.23,0.25,3.95,0.74,5.16S553.5,396.95,554.41,396.95z
			 M553.23,376.03l1.99-7.37h2.48l-2.23,7.37H553.23z"/>
		<path d="M563.41,400.25v-20.57h2.25l0.23,4.35v16.22H563.41z M571.05,400.25v-13.39c0-1.24-0.2-2.2-0.59-2.87
			c-0.39-0.67-0.94-1.01-1.64-1.01c-1.95,0-2.93,1.9-2.93,5.71l-0.73-5.28h0.96c0.07-1.38,0.38-2.42,0.91-3.09s1.33-1.02,2.37-1.02
			c1.31,0,2.33,0.66,3.05,1.98s1.08,3.18,1.08,5.59v13.39H571.05z"/>
		<path d="M596.03,400.64c-0.95,0-1.83-0.13-2.65-0.38c-0.82-0.25-1.59-0.63-2.29-1.14l0.3-3.92c0.86,0.61,1.69,1.07,2.49,1.39
			s1.58,0.48,2.34,0.48c1.09,0,1.91-0.32,2.44-0.95c0.53-0.63,0.8-1.6,0.8-2.89c0-1.64-0.51-2.85-1.52-3.61l-2.88-2.17
			c-1.13-0.85-2-1.88-2.61-3.08s-0.91-2.7-0.91-4.48c0-2.41,0.44-4.27,1.31-5.59c0.88-1.32,2.11-1.98,3.71-1.98
			c1.12,0,2.11,0.27,2.96,0.81s1.69,1.43,2.48,2.66l-1.64,2.76c-0.69-0.93-1.33-1.61-1.93-2.03s-1.22-0.63-1.87-0.63
			c-0.8,0-1.43,0.32-1.87,0.96c-0.44,0.64-0.66,1.59-0.66,2.84c0,0.89,0.14,1.62,0.43,2.18s0.71,1.06,1.28,1.5l2.44,1.9
			c1.23,0.96,2.17,2.04,2.81,3.24s0.96,2.75,0.96,4.64c0,2.5-0.49,4.37-1.47,5.62S598.02,400.64,596.03,400.64z"/>
		<path d="M610.66,400.64c-1.72,0-3.05-0.93-4.01-2.79s-1.43-4.49-1.43-7.88c0-3.4,0.48-6.03,1.43-7.89
			c0.95-1.86,2.29-2.78,4.01-2.78c1.73,0,3.06,0.93,4.01,2.78c0.95,1.86,1.42,4.49,1.42,7.89c0,3.39-0.47,6.02-1.42,7.88
			S612.39,400.64,610.66,400.64z M610.66,396.95c0.91,0,1.62-0.61,2.12-1.82s0.74-2.94,0.74-5.16c0-2.24-0.25-3.96-0.74-5.17
			s-1.2-1.81-2.12-1.81s-1.62,0.6-2.12,1.81s-0.74,2.93-0.74,5.17c0,2.23,0.25,3.95,0.74,5.16S609.75,396.95,610.66,396.95z"/>
		<path d="M625.92,400.64c-2.12,0-3.75-0.92-4.9-2.77c-1.15-1.84-1.73-4.49-1.73-7.95c0-3.36,0.54-5.98,1.63-7.84
			s2.65-2.79,4.67-2.79c1.21,0,2.25,0.37,3.11,1.12c0.86,0.74,1.48,1.79,1.85,3.15l-1.91,2.39c-0.35-0.94-0.8-1.67-1.35-2.19
			s-1.14-0.78-1.79-0.78c-1.17,0-2.08,0.59-2.73,1.76s-0.97,2.84-0.97,5c0,2.34,0.38,4.13,1.14,5.37s1.85,1.85,3.26,1.85
			c0.58,0,1.16-0.04,1.73-0.14c0.58-0.09,1.14-0.21,1.69-0.37l0.28,3.61c-0.64,0.23-1.3,0.39-1.99,0.47S626.57,400.64,625.92,400.64
			z"/>
		<path d="M633.63,400.25v-3.61h4.97v3.61H633.63z M634.33,383.29v-3.61h6.52v3.61H634.33z M639.53,376.42
			c-0.48,0-0.88-0.28-1.22-0.84c-0.34-0.56-0.51-1.24-0.51-2.03c0-0.8,0.17-1.48,0.51-2.04s0.75-0.83,1.22-0.83
			c0.48,0,0.89,0.28,1.23,0.83s0.5,1.24,0.5,2.04c0,0.79-0.17,1.47-0.5,2.03C640.42,376.14,640.01,376.42,639.53,376.42z
			 M638.37,400.25v-19.4h2.48v19.4H638.37z M640.62,400.25v-3.61h4.05v3.61H640.62z"/>
		<path d="M651.02,400.64c-1.3,0-2.3-0.52-3.01-1.55c-0.71-1.04-1.07-2.5-1.07-4.39c0-2.17,0.49-3.84,1.47-5.01
			c0.98-1.16,2.37-1.75,4.15-1.75c0.74,0,1.4,0.07,1.99,0.22s1.1,0.37,1.55,0.67l-0.52,2.79c-0.52-0.19-1.04-0.31-1.54-0.34
			s-1.01-0.05-1.54-0.05c-2.16,0-3.23,1.09-3.23,3.26c0,0.91,0.19,1.6,0.56,2.1s0.9,0.74,1.58,0.74c0.77,0,1.42-0.22,1.94-0.66
			s0.91-1,1.17-1.69c0.26-0.69,0.39-1.39,0.39-2.11v-2.25l0.73,5.28h-0.98l0.4-0.62c0,1.19-0.17,2.18-0.5,2.98
			c-0.33,0.8-0.8,1.39-1.4,1.79S651.84,400.64,651.02,400.64z M655.41,400.44l-0.16-6.09l-0.33-1.71v-5.32
			c0-1.37-0.29-2.38-0.87-3.02c-0.58-0.64-1.45-0.99-2.6-1.04l-2.98-0.14l0.23-3.65l2.51,0.06c2.05,0.05,3.58,0.79,4.58,2.2
			s1.49,3.48,1.49,6.2v8.58l2.11,0.43v3.3L655.41,400.44z"/>
		<path d="M661.03,374.75v-3.61h3.87v3.61H661.03z M668.76,400.64c-1.44,0-2.48-0.65-3.12-1.94s-0.96-3.36-0.96-6.21v-21.35h2.48
			v21.15c0,1.09,0.06,1.97,0.19,2.66s0.37,1.19,0.73,1.51s0.9,0.48,1.61,0.48c0.65,0,1.48-0.25,2.48-0.74l0.28,3.61
			c-0.63,0.28-1.24,0.49-1.82,0.62S669.44,400.64,668.76,400.64z"/>
		<path d="M694.09,400.64c-1.62,0-2.86-0.89-3.7-2.66c-0.84-1.77-1.26-4.38-1.26-7.82c0-3.57,0.42-6.27,1.26-8.11
			s2.07-2.76,3.7-2.76c0.93,0,1.69,0.36,2.27,1.09s0.92,1.73,1.03,3.03h0.96l-0.73,5.86c0-2.12-0.25-3.73-0.76-4.83
			s-1.24-1.65-2.22-1.65c-1,0-1.76,0.62-2.27,1.86c-0.52,1.24-0.77,3.08-0.77,5.51c0,2.3,0.26,4.04,0.77,5.22
			c0.52,1.18,1.27,1.77,2.27,1.77c0.98,0,1.72-0.55,2.22-1.65s0.76-2.71,0.76-4.83l0.84,5.86h-1.08c-0.08,1.29-0.41,2.3-0.99,3.03
			C695.81,400.27,695.04,400.64,694.09,400.64z M697.87,400.44l-0.26-4.04v-25.26h2.48v29.11L697.87,400.44z"/>
		<path d="M710.18,400.64c-2.12,0-3.75-0.92-4.9-2.77c-1.15-1.84-1.73-4.49-1.73-7.95c0-3.36,0.49-5.98,1.46-7.84
			s2.36-2.79,4.14-2.79c1.68,0,2.98,0.84,3.9,2.52s1.38,4.13,1.38,7.33c0,0.94-0.02,1.82-0.07,2.64h-8.72v-3.14h6.54
			c0-1.85-0.27-3.27-0.8-4.26s-1.27-1.48-2.2-1.48c-1.05,0-1.87,0.6-2.46,1.79c-0.58,1.19-0.87,2.87-0.87,5.05
			c0,2.38,0.4,4.19,1.2,5.43s1.94,1.86,3.42,1.86c0.52,0,1.02-0.05,1.52-0.15s1.01-0.23,1.52-0.4l0.3,3.61
			c-0.73,0.23-1.41,0.38-2.02,0.45C711.19,400.6,710.65,400.64,710.18,400.64z"/>
		<path d="M738.96,400.64c-5.17,0-7.76-4.73-7.76-14.2c0-4.49,0.65-7.97,1.96-10.43s3.14-3.7,5.52-3.7c1.15,0,2.15,0.3,3,0.9
			s1.47,1.46,1.86,2.57l-1.73,2.85c-0.35-0.88-0.8-1.56-1.34-2.04c-0.54-0.48-1.13-0.72-1.76-0.72c-1.51,0-2.72,0.9-3.63,2.7
			c-0.91,1.8-1.37,4.35-1.37,7.66c0,7.22,1.88,10.83,5.65,10.83c1.13,0,2.25-0.39,3.35-1.16l0.54,3.42
			C741.89,400.2,740.46,400.64,738.96,400.64z"/>
		<path d="M750.07,400.64c-1.3,0-2.31-0.64-3.03-1.93s-1.07-3.1-1.07-5.44v-13.58h2.48v13.58c0,1.18,0.2,2.09,0.61,2.73
			s0.98,0.96,1.71,0.96c0.91,0,1.59-0.48,2.05-1.43s0.69-2.54,0.69-4.78l0.63,5.55h-0.82c-0.2,1.4-0.58,2.47-1.15,3.22
			S750.91,400.64,750.07,400.64z M753.51,394.43v-14.75H756v13.58L753.51,394.43z M753.73,400.44l-0.21-4.93v-3.61H756v4.62
			l1.71,0.43v3.3L753.73,400.44z"/>
		<path d="M760.29,400.25v-20.57h2.25l0.23,4.35v16.22H760.29z M767.93,400.25v-13.39c0-1.24-0.2-2.2-0.59-2.87
			c-0.39-0.67-0.94-1.01-1.64-1.01c-1.95,0-2.93,1.9-2.93,5.71l-0.73-5.28h0.96c0.07-1.38,0.38-2.42,0.91-3.09s1.33-1.02,2.37-1.02
			c1.31,0,2.33,0.66,3.05,1.98s1.08,3.18,1.08,5.59v13.39H767.93z"/>
		<path d="M778.46,400.64c-1.62,0-2.86-0.89-3.7-2.66c-0.84-1.77-1.26-4.38-1.26-7.82c0-3.57,0.42-6.27,1.26-8.11
			s2.07-2.76,3.7-2.76c0.93,0,1.69,0.36,2.27,1.09s0.92,1.73,1.03,3.03h0.96l-0.73,5.86c0-2.12-0.25-3.73-0.76-4.83
			s-1.24-1.65-2.22-1.65c-1,0-1.76,0.62-2.27,1.86c-0.52,1.24-0.77,3.08-0.77,5.51c0,2.3,0.26,4.04,0.77,5.22
			c0.52,1.18,1.27,1.77,2.27,1.77c0.98,0,1.72-0.55,2.22-1.65s0.76-2.71,0.76-4.83l0.84,5.86h-1.08c-0.08,1.29-0.41,2.3-0.99,3.03
			C780.18,400.27,779.42,400.64,778.46,400.64z M782.25,400.44l-0.26-4.04v-25.26h2.48v29.11L782.25,400.44z"/>
		<path d="M788.32,400.25v-3.61h4.97v3.61H788.32z M789.02,383.29v-3.61h6.52v3.61H789.02z M794.21,376.42
			c-0.48,0-0.88-0.28-1.22-0.84c-0.34-0.56-0.51-1.24-0.51-2.03c0-0.8,0.17-1.48,0.51-2.04s0.75-0.83,1.22-0.83
			c0.48,0,0.89,0.28,1.23,0.83s0.5,1.24,0.5,2.04c0,0.79-0.17,1.47-0.5,2.03C795.11,376.14,794.7,376.42,794.21,376.42z
			 M793.05,400.25v-19.4h2.48v19.4H793.05z M795.3,400.25v-3.61h4.05v3.61H795.3z"/>
		<path d="M802.48,400.25v-20.57h2.25l0.23,4.35v16.22H802.48z M810.12,400.25v-13.39c0-1.24-0.2-2.2-0.59-2.87
			c-0.39-0.67-0.94-1.01-1.64-1.01c-1.95,0-2.93,1.9-2.93,5.71l-0.73-5.28h0.96c0.07-1.38,0.38-2.42,0.91-3.09s1.33-1.02,2.37-1.02
			c1.31,0,2.33,0.66,3.05,1.98s1.08,3.18,1.08,5.59v13.39H810.12z"/>
		<path d="M819.77,400.64c-1.3,0-2.3-0.52-3.01-1.55c-0.71-1.04-1.07-2.5-1.07-4.39c0-2.17,0.49-3.84,1.47-5.01
			c0.98-1.16,2.37-1.75,4.15-1.75c0.74,0,1.4,0.07,1.99,0.22s1.1,0.37,1.55,0.67l-0.52,2.79c-0.52-0.19-1.04-0.31-1.54-0.34
			s-1.01-0.05-1.54-0.05c-2.16,0-3.23,1.09-3.23,3.26c0,0.91,0.19,1.6,0.56,2.1s0.9,0.74,1.58,0.74c0.77,0,1.42-0.22,1.94-0.66
			s0.91-1,1.17-1.69c0.26-0.69,0.39-1.39,0.39-2.11v-2.25l0.73,5.28h-0.98l0.4-0.62c0,1.19-0.17,2.18-0.5,2.98
			c-0.33,0.8-0.8,1.39-1.4,1.79S820.59,400.64,819.77,400.64z M824.16,400.44l-0.16-6.09l-0.33-1.71v-5.32
			c0-1.37-0.29-2.38-0.87-3.02c-0.58-0.64-1.45-0.99-2.6-1.04l-2.98-0.14l0.23-3.65l2.51,0.06c2.05,0.05,3.58,0.79,4.58,2.2
			s1.49,3.48,1.49,6.2v8.58l2.11,0.43v3.3L824.16,400.44z"/>
		<path d="M829.94,400.25v-20.57h2.2l0.28,4.35v16.22H829.94z M834.61,400.25v-16.11c0-1.16-0.33-1.75-0.98-1.75
			c-0.8,0-1.2,0.93-1.2,2.79l-0.73-2.95h0.8c0.09-1.97,0.8-2.95,2.13-2.95c0.65,0,1.16,0.37,1.53,1.11
			c0.37,0.74,0.56,1.86,0.56,3.36v16.49H834.61z M838.9,400.25v-15.72c0-1.42-0.32-2.13-0.96-2.13c-0.81,0-1.22,0.93-1.22,2.79
			l-0.84-2.95h0.96c0.04-0.8,0.23-1.49,0.58-2.08s0.85-0.87,1.51-0.87c0.86,0,1.48,0.38,1.88,1.15c0.39,0.76,0.59,2,0.59,3.71v16.11
			H838.9z"/>
		<path d="M847.9,400.64c-1.3,0-2.3-0.52-3.01-1.55c-0.71-1.04-1.07-2.5-1.07-4.39c0-2.17,0.49-3.84,1.47-5.01
			c0.98-1.16,2.37-1.75,4.15-1.75c0.74,0,1.4,0.07,1.99,0.22s1.1,0.37,1.55,0.67l-0.52,2.79c-0.52-0.19-1.04-0.31-1.54-0.34
			s-1.01-0.05-1.54-0.05c-2.16,0-3.23,1.09-3.23,3.26c0,0.91,0.19,1.6,0.56,2.1s0.9,0.74,1.58,0.74c0.77,0,1.42-0.22,1.94-0.66
			s0.91-1,1.17-1.69c0.26-0.69,0.39-1.39,0.39-2.11v-2.25l0.73,5.28h-0.98l0.4-0.62c0,1.19-0.17,2.18-0.5,2.98
			c-0.33,0.8-0.8,1.39-1.4,1.79S848.72,400.64,847.9,400.64z M852.28,400.44l-0.16-6.09l-0.33-1.71v-5.32
			c0-1.37-0.29-2.38-0.87-3.02c-0.58-0.64-1.45-0.99-2.6-1.04l-2.98-0.14l0.23-3.65l2.51,0.06c2.05,0.05,3.58,0.79,4.58,2.2
			s1.49,3.48,1.49,6.2v8.58l2.11,0.43v3.3L852.28,400.44z"/>
		<path d="M857.69,400.25v-3.61h8.3v3.61H857.69z M858.16,383.29v-3.61h4.15l0.23,3.61H858.16z M860.46,400.25v-20.57h2.02l0.47,5.9
			v14.67H860.46z M862.94,391.4l-0.73-6.44h0.96c0.14-3.78,1.28-5.67,3.42-5.67c1.28,0,2.21,0.61,2.79,1.82
			c0.58,1.22,0.87,3.18,0.87,5.9h-2.46c0-1.5-0.13-2.58-0.4-3.24c-0.27-0.66-0.71-0.99-1.31-0.99c-1.05,0-1.84,0.75-2.36,2.24
			S862.94,388.64,862.94,391.4z"/>
		<path d="M879.05,400.64c-2.12,0-3.75-0.92-4.9-2.77c-1.15-1.84-1.73-4.49-1.73-7.95c0-3.36,0.54-5.98,1.63-7.84
			s2.65-2.79,4.67-2.79c1.21,0,2.25,0.37,3.11,1.12c0.86,0.74,1.48,1.79,1.85,3.15l-1.91,2.39c-0.35-0.94-0.8-1.67-1.35-2.19
			s-1.14-0.78-1.79-0.78c-1.17,0-2.08,0.59-2.73,1.76s-0.97,2.84-0.97,5c0,2.34,0.38,4.13,1.14,5.37s1.85,1.85,3.26,1.85
			c0.58,0,1.16-0.04,1.73-0.14c0.58-0.09,1.14-0.21,1.69-0.37l0.28,3.61c-0.64,0.23-1.3,0.39-1.99,0.47S879.69,400.64,879.05,400.64
			z"/>
		<path d="M890.08,400.64c-1.3,0-2.3-0.52-3.01-1.55c-0.71-1.04-1.07-2.5-1.07-4.39c0-2.17,0.49-3.84,1.47-5.01
			c0.98-1.16,2.37-1.75,4.15-1.75c0.74,0,1.4,0.07,1.99,0.22s1.1,0.37,1.55,0.67l-0.52,2.79c-0.52-0.19-1.04-0.31-1.54-0.34
			s-1.01-0.05-1.54-0.05c-2.16,0-3.23,1.09-3.23,3.26c0,0.91,0.19,1.6,0.56,2.1s0.9,0.74,1.58,0.74c0.77,0,1.42-0.22,1.94-0.66
			s0.91-1,1.17-1.69c0.26-0.69,0.39-1.39,0.39-2.11v-2.25l0.73,5.28h-0.98l0.4-0.62c0,1.19-0.17,2.18-0.5,2.98
			c-0.33,0.8-0.8,1.39-1.4,1.79S890.91,400.64,890.08,400.64z M894.47,400.44l-0.16-6.09l-0.33-1.71v-5.32
			c0-1.37-0.29-2.38-0.87-3.02c-0.58-0.64-1.45-0.99-2.6-1.04l-2.98-0.14l0.23-3.65l2.51,0.06c2.05,0.05,3.58,0.79,4.58,2.2
			s1.49,3.48,1.49,6.2v8.58l2.11,0.43v3.3L894.47,400.44z"/>
	</g>
</g>
</svg>
