<?xml version="1.0" encoding="utf-8"?>
<!-- Generator: Adobe Illustrator 26.4.1, SVG Export Plug-In . SVG Version: 6.00 Build 0)  -->
<svg version="1.1" id="Capa_1" xmlns="http://www.w3.org/2000/svg" xmlns:xlink="http://www.w3.org/1999/xlink" x="0px" y="0px"
	 viewBox="0 0 1280 1024" style="enable-background:new 0 0 1280 1024;" xml:space="preserve">
<style type="text/css">
	.st0{fill:url(#SVGID_1_);stroke:#0000EB;stroke-miterlimit:10;}
	.st1{fill:url(#SVGID_00000049180166385939753900000011206501818695863427_);stroke:#0000EB;stroke-miterlimit:10;}
	.st2{fill:url(#SVGID_00000039099259505769008800000005193870926144651175_);stroke:#0000EB;stroke-miterlimit:10;}
	.st3{fill:url(#SVGID_00000075145335229237259490000017564968925781368710_);stroke:#0000EB;stroke-miterlimit:10;}
	.st4{fill:url(#SVGID_00000154419432427218462870000005815507614928595625_);stroke:#0000EB;stroke-miterlimit:10;}
	.st5{fill:url(#SVGID_00000131339267065315988360000010379805164046218926_);stroke:#0000EB;stroke-miterlimit:10;}
	.st6{fill:#00E7CA;}
</style>
<g>
	<linearGradient id="SVGID_1_" gradientUnits="userSpaceOnUse" x1="195.311" y1="386.8158" x2="362.2095" y2="386.8158">
		<stop  offset="0" style="stop-color:#FFFFFF"/>
		<stop  offset="1" style="stop-color:#000000"/>
	</linearGradient>
	<path class="st0" d="M362.21,436.4v15.47c0,36.04-7.83,82.05-85.07,82.05c-57.05,0-81.83-25.77-81.83-78.28V315.57
		c0-49.68,29.23-75.86,83.2-75.86c71.16,0,82.72,39.72,82.72,77.1v17.93h-65.24v-24.37c0-15.72-3.96-23.68-17.48-23.68
		c-13.35,0-17.66,7.51-17.66,23.68v151.06c0,15.24,3,25.65,17.63,25.65c14,0,18.16-8.75,18.16-26.94V436.4H362.21z"/>
	
		<linearGradient id="SVGID_00000003802898915339187480000004898280313152821940_" gradientUnits="userSpaceOnUse" x1="390.7927" y1="495.062" x2="455.3201" y2="495.062">
		<stop  offset="0" style="stop-color:#FFFFFF"/>
		<stop  offset="1" style="stop-color:#000000"/>
	</linearGradient>
	<path style="fill:url(#SVGID_00000003802898915339187480000004898280313152821940_);stroke:#0000EB;stroke-miterlimit:10;" d="
		M390.79,529.64v-69.15h64.53v69.15H390.79z"/>
	
		<linearGradient id="SVGID_00000047776350395031279760000018341057263621117588_" gradientUnits="userSpaceOnUse" x1="480.5251" y1="386.6773" x2="648.0908" y2="386.6773">
		<stop  offset="0" style="stop-color:#FFFFFF"/>
		<stop  offset="1" style="stop-color:#000000"/>
	</linearGradient>
	<path style="fill:url(#SVGID_00000047776350395031279760000018341057263621117588_);stroke:#0000EB;stroke-miterlimit:10;" d="
		M543.99,441.6v19.78c0,18.79,5.5,27.51,20.28,27.51c14.93,0,18.44-12.94,18.44-26.41c0-26.96-5.98-34.77-40.38-59.17
		c-37.95-27.26-57.46-43.39-57.46-85.47c0-40.8,15.94-78.4,79.76-78.4c67.76,0,77.76,39.18,77.76,71.88v16.44H581.2v-17.11
		c0-17.33-3.36-25.91-16.17-25.91c-11.96,0-15.82,8.72-15.82,24.9c0,17.2,3.69,25.7,31.55,44.12
		c49.55,33.01,67.33,51.54,67.33,98.58c0,44.72-18.02,81.57-84.96,81.57c-64.27,0-82.61-32.87-82.61-75.2V441.6H543.99z"/>
	
		<linearGradient id="SVGID_00000155850253123975141300000016669540484867703459_" gradientUnits="userSpaceOnUse" x1="674.5347" y1="495.062" x2="739.0621" y2="495.062">
		<stop  offset="0" style="stop-color:#FFFFFF"/>
		<stop  offset="1" style="stop-color:#000000"/>
	</linearGradient>
	<path style="fill:url(#SVGID_00000155850253123975141300000016669540484867703459_);stroke:#0000EB;stroke-miterlimit:10;" d="
		M674.53,529.64v-69.15h64.53v69.15H674.53z"/>
	
		<linearGradient id="SVGID_00000061433799770287369410000002696488696992469168_" gradientUnits="userSpaceOnUse" x1="767.3364" y1="386.8158" x2="934.2349" y2="386.8158">
		<stop  offset="0" style="stop-color:#FFFFFF"/>
		<stop  offset="1" style="stop-color:#000000"/>
	</linearGradient>
	<path style="fill:url(#SVGID_00000061433799770287369410000002696488696992469168_);stroke:#0000EB;stroke-miterlimit:10;" d="
		M934.23,436.4v15.47c0,36.04-7.83,82.05-85.07,82.05c-57.05,0-81.83-25.77-81.83-78.28V315.57c0-49.68,29.23-75.86,83.2-75.86
		c71.16,0,82.72,39.72,82.72,77.1v17.93h-65.24v-24.37c0-15.72-3.96-23.68-17.48-23.68c-13.35,0-17.66,7.51-17.66,23.68v151.06
		c0,15.24,3,25.65,17.63,25.65c14,0,18.16-8.75,18.16-26.94V436.4H934.23z"/>
	
		<linearGradient id="SVGID_00000181048529408046019630000018125810554072849290_" gradientUnits="userSpaceOnUse" x1="962.8181" y1="495.062" x2="1027.3456" y2="495.062">
		<stop  offset="0" style="stop-color:#FFFFFF"/>
		<stop  offset="1" style="stop-color:#000000"/>
	</linearGradient>
	<path style="fill:url(#SVGID_00000181048529408046019630000018125810554072849290_);stroke:#0000EB;stroke-miterlimit:10;" d="
		M962.82,529.64v-69.15h64.53v69.15H962.82z"/>
</g>
<g>
	<g>
	</g>
</g>
<g>
	<path class="st6" d="M207.3,598.47c-8.9,0-13.34-9.04-13.34-27.11c0-8.57,1.12-15.2,3.37-19.9c2.24-4.7,5.41-7.05,9.49-7.05
		c1.97,0,3.69,0.57,5.16,1.72c1.47,1.15,2.53,2.78,3.21,4.91l-2.98,5.44c-0.6-1.68-1.37-2.97-2.31-3.89
		c-0.93-0.91-1.94-1.37-3.03-1.37c-2.59,0-4.67,1.72-6.24,5.15c-1.57,3.43-2.35,8.31-2.35,14.63c0,13.78,3.24,20.67,9.71,20.67
		c1.95,0,3.87-0.74,5.76-2.22l0.93,6.52C212.34,597.63,209.88,598.47,207.3,598.47z"/>
	<path class="st6" d="M228.5,598.47c-2.96,0-5.25-1.78-6.89-5.33c-1.64-3.56-2.46-8.57-2.46-15.03c0-6.49,0.82-11.51,2.46-15.06
		c1.64-3.54,3.94-5.31,6.89-5.31c2.97,0,5.27,1.77,6.9,5.31c1.63,3.54,2.45,8.56,2.45,15.06c0,6.47-0.82,11.48-2.45,15.03
		C233.77,596.69,231.47,598.47,228.5,598.47z M228.5,591.43c1.57,0,2.78-1.16,3.64-3.48c0.85-2.32,1.28-5.6,1.28-9.85
		c0-4.27-0.43-7.56-1.28-9.87c-0.85-2.31-2.07-3.46-3.64-3.46s-2.78,1.16-3.64,3.46c-0.85,2.31-1.28,5.6-1.28,9.87
		c0,4.25,0.43,7.53,1.28,9.85C225.72,590.27,226.93,591.43,228.5,591.43z"/>
	<path class="st6" d="M242.21,597.73v-6.89h14.27v6.89H242.21z M243.01,565.36v-6.89h7.13l0.4,6.89H243.01z M246.97,597.73v-39.26
		h3.47l0.81,11.26v28H246.97z M251.24,580.84l-1.25-12.3h1.65c0.24-7.21,2.2-10.81,5.89-10.81c2.2,0,3.8,1.16,4.8,3.48
		s1.49,6.07,1.49,11.26h-4.23c0-2.86-0.23-4.92-0.69-6.18c-0.46-1.26-1.21-1.89-2.25-1.89c-1.81,0-3.17,1.43-4.06,4.28
		S251.24,575.58,251.24,580.84z"/>
	<path class="st6" d="M268.17,614.76v-56.29h3.87l0.4,8.3v48H268.17z M278.51,598.47c-1.64,0-2.96-0.69-3.96-2.07
		c-1-1.38-1.57-3.31-1.7-5.78h-1.85l1.45-11.18c0,4.05,0.43,7.12,1.3,9.22c0.87,2.1,2.14,3.15,3.82,3.15c1.72,0,3.02-1.12,3.91-3.37
		c0.89-2.25,1.33-5.57,1.33-9.96c0-4.64-0.44-8.15-1.33-10.52c-0.89-2.37-2.19-3.55-3.91-3.55c-1.68,0-2.95,1.05-3.82,3.15
		c-0.87,2.1-1.3,5.17-1.3,9.22l-1.45-11.18h1.65c0.19-2.47,0.8-4.39,1.82-5.78c1.03-1.38,2.37-2.07,4.04-2.07
		c2.81,0,4.93,1.75,6.37,5.26c1.44,3.51,2.16,8.66,2.16,15.48c0,6.57-0.72,11.54-2.16,14.92
		C283.44,596.78,281.32,598.47,278.51,598.47z"/>
	<path class="st6" d="M301.06,598.47c-2.96,0-5.25-1.78-6.89-5.33c-1.64-3.56-2.46-8.57-2.46-15.03c0-6.49,0.82-11.51,2.46-15.06
		c1.64-3.54,3.94-5.31,6.89-5.31c2.97,0,5.27,1.77,6.9,5.31c1.63,3.54,2.45,8.56,2.45,15.06c0,6.47-0.82,11.48-2.45,15.03
		C306.34,596.69,304.03,598.47,301.06,598.47z M301.06,591.43c1.57,0,2.78-1.16,3.64-3.48c0.85-2.32,1.28-5.6,1.28-9.85
		c0-4.27-0.43-7.56-1.28-9.87c-0.85-2.31-2.07-3.46-3.64-3.46c-1.57,0-2.79,1.16-3.64,3.46c-0.85,2.31-1.28,5.6-1.28,9.87
		c0,4.25,0.43,7.53,1.28,9.85C298.28,590.27,299.49,591.43,301.06,591.43z"/>
	<path class="st6" d="M314.77,597.73v-6.89h14.27v6.89H314.77z M315.58,565.36v-6.89h7.14l0.4,6.89H315.58z M319.53,597.73v-39.26
		h3.47l0.81,11.26v28H319.53z M323.8,580.84l-1.25-12.3h1.65c0.24-7.21,2.2-10.81,5.89-10.81c2.2,0,3.8,1.16,4.8,3.48
		c0.99,2.32,1.49,6.07,1.49,11.26h-4.23c0-2.86-0.23-4.92-0.69-6.18s-1.21-1.89-2.25-1.89c-1.81,0-3.17,1.43-4.06,4.28
		C324.25,571.53,323.8,575.58,323.8,580.84z"/>
	<path class="st6" d="M346.29,598.47c-2.23,0-3.96-0.99-5.18-2.96c-1.22-1.98-1.83-4.77-1.83-8.37c0-4.15,0.84-7.33,2.53-9.56
		c1.69-2.22,4.07-3.33,7.15-3.33c1.28,0,2.42,0.14,3.42,0.43c1,0.28,1.89,0.71,2.67,1.28l-0.89,5.33c-0.9-0.37-1.78-0.59-2.64-0.65
		c-0.86-0.06-1.74-0.09-2.64-0.09c-3.71,0-5.56,2.07-5.56,6.22c0,1.73,0.32,3.06,0.96,4c0.64,0.94,1.54,1.41,2.71,1.41
		c1.33,0,2.44-0.42,3.34-1.26c0.89-0.84,1.56-1.91,2.01-3.22s0.66-2.65,0.66-4.04v-4.3l1.25,10.07h-1.69l0.69-1.19
		c0,2.27-0.29,4.17-0.86,5.68c-0.57,1.52-1.37,2.65-2.41,3.41C348.93,598.09,347.7,598.47,346.29,598.47z M353.83,598.1l-0.28-11.63
		l-0.57-3.26v-10.15c0-2.62-0.5-4.54-1.5-5.76c-1-1.22-2.49-1.88-4.46-1.98l-5.12-0.26l0.4-6.96l4.31,0.11
		c3.53,0.1,6.16,1.5,7.87,4.2c1.71,2.7,2.57,6.65,2.57,11.83v16.37l3.63,0.81v6.3L353.83,598.1z"/>
	<path class="st6" d="M375.68,598.47c-3.64,0-6.45-1.76-8.44-5.28c-1.98-3.52-2.97-8.57-2.97-15.17c0-6.42,0.94-11.41,2.81-14.96
		c1.88-3.55,4.55-5.33,8.03-5.33c2.08,0,3.87,0.71,5.35,2.13c1.48,1.42,2.54,3.43,3.17,6.02l-3.29,4.55c-0.6-1.8-1.38-3.2-2.32-4.18
		c-0.94-0.99-1.97-1.48-3.08-1.48c-2.02,0-3.58,1.12-4.7,3.35c-1.12,2.23-1.67,5.41-1.67,9.53c0,4.47,0.66,7.88,1.97,10.24
		c1.31,2.36,3.18,3.54,5.61,3.54c0.99,0,1.99-0.09,2.98-0.26c1-0.17,1.96-0.41,2.9-0.7l0.48,6.89c-1.1,0.44-2.24,0.74-3.42,0.89
		C377.94,598.39,376.8,598.47,375.68,598.47z"/>
	<path class="st6" d="M388.95,597.73v-6.89h8.55v6.89H388.95z M390.15,565.36v-6.89h11.21v6.89H390.15z M399.08,552.25
		c-0.82,0-1.52-0.54-2.11-1.61c-0.58-1.07-0.88-2.36-0.88-3.87c0-1.53,0.29-2.83,0.88-3.89c0.59-1.06,1.29-1.59,2.11-1.59
		c0.83,0,1.54,0.53,2.12,1.59c0.58,1.06,0.87,2.36,0.87,3.89c0,1.51-0.29,2.8-0.87,3.87S399.92,552.25,399.08,552.25z
		 M397.09,597.73V560.7h4.27v37.03H397.09z M400.96,597.73v-6.89h6.97v6.89H400.96z"/>
	<path class="st6" d="M422,598.47c-2.96,0-5.25-1.78-6.89-5.33c-1.64-3.56-2.46-8.57-2.46-15.03c0-6.49,0.82-11.51,2.46-15.06
		c1.64-3.54,3.94-5.31,6.89-5.31c2.97,0,5.27,1.77,6.9,5.31c1.63,3.54,2.45,8.56,2.45,15.06c0,6.47-0.82,11.48-2.45,15.03
		C427.27,596.69,424.97,598.47,422,598.47z M422,591.43c1.57,0,2.78-1.16,3.64-3.48c0.85-2.32,1.28-5.6,1.28-9.85
		c0-4.27-0.43-7.56-1.28-9.87c-0.85-2.31-2.07-3.46-3.64-3.46c-1.57,0-2.79,1.16-3.64,3.46c-0.85,2.31-1.28,5.6-1.28,9.87
		c0,4.25,0.43,7.53,1.28,9.85C419.21,590.27,420.43,591.43,422,591.43z M419.96,551.51l3.43-14.07h4.27l-3.83,14.07H419.96z"/>
	<path class="st6" d="M437.48,597.73v-39.26h3.87l0.4,8.3v30.96H437.48z M450.62,597.73v-25.55c0-2.37-0.33-4.2-1.01-5.48
		c-0.67-1.28-1.61-1.93-2.82-1.93c-3.36,0-5.04,3.63-5.04,10.89l-1.25-10.07h1.65c0.12-2.64,0.64-4.61,1.57-5.91
		c0.93-1.3,2.28-1.94,4.07-1.94c2.26,0,4.01,1.26,5.24,3.78c1.24,2.52,1.85,6.07,1.85,10.66v25.55H450.62z"/>
	<path class="st6" d="M493.57,598.47c-1.63,0-3.15-0.24-4.56-0.72c-1.42-0.48-2.73-1.2-3.94-2.17l0.52-7.48
		c1.48,1.16,2.91,2.04,4.28,2.65c1.38,0.61,2.72,0.91,4.02,0.91c1.88,0,3.28-0.6,4.19-1.82c0.91-1.21,1.37-3.05,1.37-5.52
		c0-3.13-0.87-5.43-2.62-6.89l-4.96-4.15c-1.95-1.63-3.44-3.59-4.49-5.89s-1.56-5.15-1.56-8.55c0-4.59,0.75-8.15,2.26-10.67
		c1.5-2.52,3.63-3.78,6.39-3.78c1.92,0,3.62,0.52,5.1,1.55c1.48,1.04,2.9,2.73,4.27,5.07l-2.82,5.26c-1.18-1.78-2.29-3.07-3.32-3.87
		c-1.03-0.8-2.1-1.2-3.22-1.2c-1.38,0-2.46,0.61-3.21,1.83c-0.76,1.22-1.14,3.03-1.14,5.43c0,1.7,0.25,3.09,0.75,4.17
		c0.5,1.07,1.23,2.03,2.2,2.87l4.19,3.63c2.12,1.83,3.74,3.89,4.84,6.18c1.1,2.3,1.65,5.25,1.65,8.85c0,4.77-0.84,8.34-2.53,10.72
		C499.56,597.28,497,598.47,493.57,598.47z"/>
	<path class="st6" d="M518.75,598.47c-2.96,0-5.25-1.78-6.89-5.33c-1.64-3.56-2.46-8.57-2.46-15.03c0-6.49,0.82-11.51,2.46-15.06
		c1.64-3.54,3.94-5.31,6.89-5.31c2.97,0,5.27,1.77,6.9,5.31c1.63,3.54,2.45,8.56,2.45,15.06c0,6.47-0.82,11.48-2.45,15.03
		C524.02,596.69,521.72,598.47,518.75,598.47z M518.75,591.43c1.57,0,2.78-1.16,3.64-3.48c0.85-2.32,1.28-5.6,1.28-9.85
		c0-4.27-0.43-7.56-1.28-9.87c-0.85-2.31-2.07-3.46-3.64-3.46c-1.57,0-2.79,1.16-3.64,3.46c-0.85,2.31-1.28,5.6-1.28,9.87
		c0,4.25,0.43,7.53,1.28,9.85C515.96,590.27,517.18,591.43,518.75,591.43z"/>
	<path class="st6" d="M544.99,598.47c-3.64,0-6.45-1.76-8.43-5.28c-1.98-3.52-2.97-8.57-2.97-15.17c0-6.42,0.94-11.41,2.81-14.96
		c1.88-3.55,4.55-5.33,8.03-5.33c2.08,0,3.87,0.71,5.35,2.13c1.48,1.42,2.54,3.43,3.17,6.02l-3.29,4.55c-0.6-1.8-1.38-3.2-2.32-4.18
		c-0.94-0.99-1.97-1.48-3.08-1.48c-2.02,0-3.58,1.12-4.7,3.35c-1.12,2.23-1.67,5.41-1.67,9.53c0,4.47,0.66,7.88,1.96,10.24
		c1.31,2.36,3.18,3.54,5.61,3.54c0.99,0,1.99-0.09,2.98-0.26c1-0.17,1.96-0.41,2.9-0.7l0.48,6.89c-1.1,0.44-2.24,0.74-3.42,0.89
		C547.25,598.39,546.11,598.47,544.99,598.47z"/>
	<path class="st6" d="M558.26,597.73v-6.89h8.55v6.89H558.26z M559.46,565.36v-6.89h11.21v6.89H559.46z M568.39,552.25
		c-0.82,0-1.52-0.54-2.11-1.61c-0.58-1.07-0.88-2.36-0.88-3.87c0-1.53,0.29-2.83,0.88-3.89c0.59-1.06,1.29-1.59,2.11-1.59
		c0.83,0,1.54,0.53,2.12,1.59c0.58,1.06,0.87,2.36,0.87,3.89c0,1.51-0.29,2.8-0.87,3.87S569.23,552.25,568.39,552.25z M566.4,597.73
		V560.7h4.27v37.03H566.4z M570.27,597.73v-6.89h6.97v6.89H570.27z"/>
	<path class="st6" d="M588.17,598.47c-2.23,0-3.96-0.99-5.18-2.96c-1.22-1.98-1.83-4.77-1.83-8.37c0-4.15,0.84-7.33,2.53-9.56
		c1.69-2.22,4.07-3.33,7.15-3.33c1.28,0,2.42,0.14,3.42,0.43c1,0.28,1.89,0.71,2.67,1.28l-0.89,5.33c-0.9-0.37-1.78-0.59-2.64-0.65
		s-1.74-0.09-2.64-0.09c-3.71,0-5.56,2.07-5.56,6.22c0,1.73,0.32,3.06,0.96,4c0.64,0.94,1.54,1.41,2.71,1.41
		c1.33,0,2.44-0.42,3.34-1.26c0.89-0.84,1.56-1.91,2.01-3.22c0.44-1.31,0.66-2.65,0.66-4.04v-4.3l1.25,10.07h-1.69l0.69-1.19
		c0,2.27-0.29,4.17-0.86,5.68c-0.57,1.52-1.37,2.65-2.41,3.41C590.8,598.09,589.58,598.47,588.17,598.47z M595.71,598.1l-0.28-11.63
		l-0.57-3.26v-10.15c0-2.62-0.5-4.54-1.5-5.76c-1-1.22-2.49-1.88-4.46-1.98l-5.12-0.26l0.4-6.96l4.31,0.11
		c3.53,0.1,6.16,1.5,7.87,4.2c1.71,2.7,2.57,6.65,2.57,11.83v16.37l3.63,0.81v6.3L595.71,598.1z"/>
	<path class="st6" d="M605.38,549.07v-6.89h6.65v6.89H605.38z M618.68,598.47c-2.47,0-4.26-1.23-5.36-3.7
		c-1.1-2.47-1.65-6.42-1.65-11.85v-40.74h4.27v40.37c0,2.07,0.11,3.76,0.32,5.07c0.21,1.31,0.64,2.27,1.26,2.89
		c0.63,0.62,1.55,0.93,2.77,0.93c1.12,0,2.54-0.47,4.27-1.41l0.48,6.89c-1.09,0.54-2.13,0.94-3.14,1.18
		C620.92,598.35,619.84,598.47,618.68,598.47z"/>
	<path class="st6" d="M662.24,598.47c-2.8,0-4.92-1.69-6.36-5.07c-1.45-3.38-2.17-8.36-2.17-14.92c0-6.81,0.72-11.97,2.17-15.48
		c1.44-3.51,3.56-5.26,6.36-5.26c1.6,0,2.9,0.69,3.9,2.07c1,1.38,1.59,3.31,1.76,5.78h1.65l-1.25,11.18c0-4.05-0.43-7.12-1.3-9.22
		c-0.87-2.1-2.14-3.15-3.82-3.15c-1.72,0-3.02,1.18-3.91,3.55c-0.89,2.37-1.33,5.88-1.33,10.52c0,4.39,0.44,7.72,1.33,9.96
		c0.89,2.25,2.19,3.37,3.91,3.37c1.68,0,2.95-1.05,3.82-3.15s1.3-5.17,1.3-9.22l1.45,11.18h-1.85c-0.13,2.47-0.7,4.39-1.7,5.78
		C665.2,597.78,663.88,598.47,662.24,598.47z M668.75,598.1l-0.45-7.7v-48.22h4.27v55.55L668.75,598.1z"/>
	<path class="st6" d="M689.91,598.47c-3.64,0-6.45-1.76-8.44-5.28c-1.98-3.52-2.97-8.57-2.97-15.17c0-6.42,0.84-11.41,2.52-14.96
		c1.68-3.55,4.05-5.33,7.12-5.33c2.89,0,5.12,1.6,6.7,4.81c1.58,3.21,2.37,7.88,2.37,14c0,1.8-0.04,3.48-0.12,5.04h-15v-6h11.25
		c0-3.53-0.46-6.24-1.37-8.13c-0.91-1.89-2.18-2.83-3.79-2.83c-1.81,0-3.22,1.14-4.22,3.41c-1,2.27-1.5,5.48-1.5,9.63
		c0,4.54,0.69,8,2.07,10.37c1.38,2.37,3.34,3.55,5.88,3.55c0.89,0,1.76-0.09,2.62-0.28c0.86-0.18,1.73-0.44,2.62-0.76l0.52,6.89
		c-1.26,0.44-2.42,0.73-3.47,0.85C691.65,598.41,690.72,598.47,689.91,598.47z"/>
	<path class="st6" d="M739.42,598.47c-8.9,0-13.34-9.04-13.34-27.11c0-8.57,1.12-15.2,3.36-19.9c2.24-4.7,5.41-7.05,9.49-7.05
		c1.98,0,3.7,0.57,5.16,1.72s2.53,2.78,3.21,4.91l-2.98,5.44c-0.6-1.68-1.37-2.97-2.31-3.89s-1.94-1.37-3.03-1.37
		c-2.59,0-4.67,1.72-6.24,5.15c-1.56,3.43-2.35,8.31-2.35,14.63c0,13.78,3.24,20.67,9.72,20.67c1.95,0,3.87-0.74,5.76-2.22
		l0.93,6.52C744.46,597.63,742,598.47,739.42,598.47z"/>
	<path class="st6" d="M758.53,598.47c-2.25,0-3.98-1.23-5.21-3.68c-1.23-2.46-1.84-5.92-1.84-10.39v-25.92h4.27v25.92
		c0,2.25,0.35,3.98,1.05,5.2c0.7,1.22,1.68,1.83,2.94,1.83c1.56,0,2.73-0.91,3.53-2.72c0.79-1.81,1.19-4.86,1.19-9.13l1.09,10.59
		h-1.41c-0.34,2.67-1,4.72-1.98,6.15C761.17,597.75,759.96,598.47,758.53,598.47z M764.45,586.62v-28.15h4.27v25.92L764.45,586.62z
		 M764.81,598.1l-0.36-9.41v-6.89h4.27v8.81l2.94,0.81v6.3L764.81,598.1z"/>
	<path class="st6" d="M776.1,597.73v-39.26h3.87l0.4,8.3v30.96H776.1z M789.24,597.73v-25.55c0-2.37-0.33-4.2-1.01-5.48
		c-0.67-1.28-1.61-1.93-2.82-1.93c-3.36,0-5.04,3.63-5.04,10.89l-1.25-10.07h1.65c0.12-2.64,0.64-4.61,1.57-5.91
		c0.93-1.3,2.28-1.94,4.07-1.94c2.26,0,4.01,1.26,5.24,3.78c1.24,2.52,1.85,6.07,1.85,10.66v25.55H789.24z"/>
	<path class="st6" d="M807.36,598.47c-2.8,0-4.92-1.69-6.36-5.07c-1.45-3.38-2.17-8.36-2.17-14.92c0-6.81,0.72-11.97,2.17-15.48
		c1.44-3.51,3.56-5.26,6.36-5.26c1.6,0,2.9,0.69,3.9,2.07c1,1.38,1.59,3.31,1.76,5.78h1.65l-1.25,11.18c0-4.05-0.43-7.12-1.3-9.22
		c-0.87-2.1-2.14-3.15-3.82-3.15c-1.72,0-3.02,1.18-3.91,3.55c-0.89,2.37-1.33,5.88-1.33,10.52c0,4.39,0.44,7.72,1.33,9.96
		c0.89,2.25,2.19,3.37,3.91,3.37c1.68,0,2.95-1.05,3.82-3.15s1.3-5.17,1.3-9.22l1.45,11.18h-1.85c-0.13,2.47-0.7,4.39-1.7,5.78
		C810.32,597.78,809,598.47,807.36,598.47z M813.87,598.1l-0.45-7.7v-48.22h4.27v55.55L813.87,598.1z"/>
	<path class="st6" d="M824.31,597.73v-6.89h8.55v6.89H824.31z M825.52,565.36v-6.89h11.21v6.89H825.52z M834.45,552.25
		c-0.82,0-1.52-0.54-2.11-1.61c-0.58-1.07-0.88-2.36-0.88-3.87c0-1.53,0.29-2.83,0.88-3.89c0.59-1.06,1.29-1.59,2.11-1.59
		c0.83,0,1.54,0.53,2.12,1.59c0.58,1.06,0.87,2.36,0.87,3.89c0,1.51-0.29,2.8-0.87,3.87S835.29,552.25,834.45,552.25z
		 M832.46,597.73V560.7h4.27v37.03H832.46z M836.33,597.73v-6.89h6.97v6.89H836.33z"/>
	<path class="st6" d="M848.66,597.73v-39.26h3.87l0.4,8.3v30.96H848.66z M861.8,597.73v-25.55c0-2.37-0.33-4.2-1.01-5.48
		c-0.67-1.28-1.61-1.93-2.82-1.93c-3.36,0-5.04,3.63-5.04,10.89l-1.25-10.07h1.65c0.12-2.64,0.64-4.61,1.57-5.91
		c0.93-1.3,2.28-1.94,4.07-1.94c2.26,0,4.01,1.26,5.24,3.78c1.24,2.52,1.85,6.07,1.85,10.66v25.55H861.8z"/>
	<path class="st6" d="M878.41,598.47c-2.23,0-3.96-0.99-5.18-2.96c-1.22-1.98-1.83-4.77-1.83-8.37c0-4.15,0.84-7.33,2.53-9.56
		c1.69-2.22,4.07-3.33,7.15-3.33c1.28,0,2.42,0.14,3.42,0.43c1,0.28,1.89,0.71,2.67,1.28l-0.89,5.33c-0.9-0.37-1.78-0.59-2.64-0.65
		c-0.86-0.06-1.74-0.09-2.64-0.09c-3.71,0-5.56,2.07-5.56,6.22c0,1.73,0.32,3.06,0.96,4c0.64,0.94,1.54,1.41,2.71,1.41
		c1.33,0,2.44-0.42,3.34-1.26c0.89-0.84,1.56-1.91,2.01-3.22c0.44-1.31,0.66-2.65,0.66-4.04v-4.3l1.25,10.07h-1.69l0.69-1.19
		c0,2.27-0.29,4.17-0.86,5.68c-0.57,1.52-1.37,2.65-2.41,3.41C881.05,598.09,879.82,598.47,878.41,598.47z M885.95,598.1
		l-0.28-11.63l-0.57-3.26v-10.15c0-2.62-0.5-4.54-1.5-5.76c-1-1.22-2.49-1.88-4.46-1.98l-5.12-0.26l0.4-6.96l4.31,0.11
		c3.53,0.1,6.16,1.5,7.87,4.2c1.71,2.7,2.57,6.65,2.57,11.83v16.37l3.63,0.81v6.3L885.95,598.1z"/>
	<path class="st6" d="M895.91,597.73v-39.26h3.79l0.48,8.3v30.96H895.91z M903.93,597.73v-30.74c0-2.22-0.56-3.33-1.69-3.33
		c-1.37,0-2.06,1.78-2.06,5.33l-1.25-5.63h1.37c0.16-3.75,1.38-5.63,3.67-5.63c1.11,0,1.99,0.7,2.63,2.11
		c0.64,1.41,0.96,3.54,0.96,6.41v31.48H903.93z M911.31,597.73v-30c0-2.72-0.55-4.07-1.65-4.07c-1.4,0-2.1,1.78-2.1,5.33l-1.45-5.63
		h1.65c0.07-1.53,0.4-2.85,1-3.96s1.46-1.67,2.59-1.67c1.48,0,2.55,0.73,3.22,2.18c0.67,1.46,1.01,3.82,1.01,7.07v30.74H911.31z"/>
	<path class="st6" d="M926.79,598.47c-2.23,0-3.96-0.99-5.18-2.96c-1.22-1.98-1.83-4.77-1.83-8.37c0-4.15,0.84-7.33,2.53-9.56
		c1.69-2.22,4.07-3.33,7.15-3.33c1.28,0,2.42,0.14,3.42,0.43c1,0.28,1.89,0.71,2.67,1.28l-0.89,5.33c-0.9-0.37-1.78-0.59-2.64-0.65
		c-0.86-0.06-1.74-0.09-2.64-0.09c-3.71,0-5.56,2.07-5.56,6.22c0,1.73,0.32,3.06,0.96,4c0.64,0.94,1.54,1.41,2.71,1.41
		c1.33,0,2.44-0.42,3.34-1.26c0.89-0.84,1.56-1.91,2.01-3.22c0.44-1.31,0.66-2.65,0.66-4.04v-4.3l1.25,10.07h-1.69l0.69-1.19
		c0,2.27-0.29,4.17-0.86,5.68c-0.57,1.52-1.37,2.65-2.41,3.41C929.42,598.09,928.2,598.47,926.79,598.47z M934.33,598.1l-0.28-11.63
		l-0.57-3.26v-10.15c0-2.62-0.5-4.54-1.5-5.76c-1-1.22-2.49-1.88-4.46-1.98l-5.12-0.26l0.4-6.96l4.31,0.11
		c3.53,0.1,6.16,1.5,7.87,4.2c1.71,2.7,2.57,6.65,2.57,11.83v16.37l3.63,0.81v6.3L934.33,598.1z"/>
	<path class="st6" d="M943.64,597.73v-6.89h14.27v6.89H943.64z M944.44,565.36v-6.89h7.14l0.4,6.89H944.44z M948.39,597.73v-39.26
		h3.47l0.81,11.26v28H948.39z M952.67,580.84l-1.25-12.3h1.65c0.24-7.21,2.2-10.81,5.89-10.81c2.2,0,3.8,1.16,4.8,3.48
		c0.99,2.32,1.49,6.07,1.49,11.26h-4.23c0-2.86-0.23-4.92-0.69-6.18c-0.46-1.26-1.21-1.89-2.25-1.89c-1.81,0-3.17,1.43-4.06,4.28
		C953.11,571.53,952.67,575.58,952.67,580.84z"/>
	<path class="st6" d="M980.36,598.47c-3.64,0-6.45-1.76-8.44-5.28c-1.98-3.52-2.97-8.57-2.97-15.17c0-6.42,0.94-11.41,2.81-14.96
		c1.88-3.55,4.55-5.33,8.03-5.33c2.08,0,3.87,0.71,5.35,2.13c1.48,1.42,2.54,3.43,3.17,6.02l-3.29,4.55c-0.6-1.8-1.38-3.2-2.32-4.18
		c-0.94-0.99-1.97-1.48-3.08-1.48c-2.02,0-3.58,1.12-4.7,3.35c-1.12,2.23-1.67,5.41-1.67,9.53c0,4.47,0.66,7.88,1.97,10.24
		c1.31,2.36,3.18,3.54,5.61,3.54c0.99,0,1.99-0.09,2.98-0.26c1-0.17,1.96-0.41,2.9-0.7l0.48,6.89c-1.1,0.44-2.24,0.74-3.42,0.89
		C982.62,598.39,981.48,598.47,980.36,598.47z"/>
	<path class="st6" d="M999.35,598.47c-2.23,0-3.96-0.99-5.18-2.96c-1.22-1.98-1.83-4.77-1.83-8.37c0-4.15,0.84-7.33,2.53-9.56
		c1.69-2.22,4.07-3.33,7.15-3.33c1.28,0,2.42,0.14,3.42,0.43c1,0.28,1.89,0.71,2.67,1.28l-0.89,5.33c-0.9-0.37-1.78-0.59-2.64-0.65
		c-0.86-0.06-1.74-0.09-2.64-0.09c-3.71,0-5.56,2.07-5.56,6.22c0,1.73,0.32,3.06,0.96,4c0.64,0.94,1.54,1.41,2.71,1.41
		c1.33,0,2.44-0.42,3.34-1.26c0.89-0.84,1.56-1.91,2.01-3.22c0.44-1.31,0.66-2.65,0.66-4.04v-4.3l1.25,10.07h-1.69l0.69-1.19
		c0,2.27-0.29,4.17-0.86,5.68c-0.57,1.52-1.37,2.65-2.41,3.41C1001.98,598.09,1000.76,598.47,999.35,598.47z M1006.89,598.1
		l-0.28-11.63l-0.57-3.26v-10.15c0-2.62-0.5-4.54-1.5-5.76c-1-1.22-2.49-1.88-4.46-1.98l-5.12-0.26l0.4-6.96l4.31,0.11
		c3.53,0.1,6.16,1.5,7.87,4.2c1.71,2.7,2.57,6.65,2.57,11.83v16.37l3.63,0.81v6.3L1006.89,598.1z"/>
</g>
</svg>
