<?xml version="1.0" encoding="utf-8"?>
<!-- Generator: Adobe Illustrator 26.4.1, SVG Export Plug-In . SVG Version: 6.00 Build 0)  -->
<svg version="1.1" id="Capa_1" xmlns="http://www.w3.org/2000/svg" xmlns:xlink="http://www.w3.org/1999/xlink" x="0px" y="0px"
	 viewBox="0 0 1277.6 386.68" style="enable-background:new 0 0 1277.6 386.68;" xml:space="preserve">
<style type="text/css">
	.st0{fill:url(#SVGID_1_);stroke:#0000EB;stroke-miterlimit:10;}
	.st1{fill:url(#SVGID_00000063622029710356269200000004189784704819849091_);stroke:#0000EB;stroke-miterlimit:10;}
	.st2{fill:url(#SVGID_00000163044386485579140240000007907731937651560586_);stroke:#0000EB;stroke-miterlimit:10;}
	.st3{fill:url(#SVGID_00000078724654538796206690000015997853877536509093_);stroke:#0000EB;stroke-miterlimit:10;}
	.st4{fill:url(#SVGID_00000069355591233606663060000014455541778135032981_);stroke:#0000EB;stroke-miterlimit:10;}
	.st5{fill:url(#SVGID_00000101095113580665722570000003078397040846634900_);stroke:#0000EB;stroke-miterlimit:10;}
	.st6{fill:#00E7CA;}
</style>
<g>
	<linearGradient id="SVGID_1_" gradientUnits="userSpaceOnUse" x1="203.0199" y1="158.7298" x2="416.2478" y2="158.7298">
		<stop  offset="0" style="stop-color:#FFFFFF"/>
		<stop  offset="1" style="stop-color:#000000"/>
	</linearGradient>
	<path class="st0" d="M416.25,208.32v15.47c0,36.04-10,82.05-108.68,82.05c-72.89,0-104.55-25.77-104.55-78.28V87.49
		c0-49.68,37.34-75.86,106.29-75.86c90.92,0,105.68,39.72,105.68,77.1v17.93h-83.35V82.28c0-15.72-5.05-23.68-22.34-23.68
		c-17.05,0-22.56,7.51-22.56,23.68v151.06c0,15.24,3.83,25.65,22.52,25.65c17.89,0,23.2-8.75,23.2-26.94v-23.73H416.25z"/>
	
		<linearGradient id="SVGID_00000004537779687359507880000010116244597196011423_" gradientUnits="userSpaceOnUse" x1="452.7654" y1="266.976" x2="535.205" y2="266.976">
		<stop  offset="0" style="stop-color:#FFFFFF"/>
		<stop  offset="1" style="stop-color:#000000"/>
	</linearGradient>
	<path style="fill:url(#SVGID_00000004537779687359507880000010116244597196011423_);stroke:#0000EB;stroke-miterlimit:10;" d="
		M452.77,301.55V232.4h82.44v69.15H452.77z"/>
	
		<linearGradient id="SVGID_00000001643076055374905580000013843879696025420981_" gradientUnits="userSpaceOnUse" x1="567.4067" y1="158.5914" x2="781.4869" y2="158.5914">
		<stop  offset="0" style="stop-color:#FFFFFF"/>
		<stop  offset="1" style="stop-color:#000000"/>
	</linearGradient>
	<path style="fill:url(#SVGID_00000001643076055374905580000013843879696025420981_);stroke:#0000EB;stroke-miterlimit:10;" d="
		M648.49,213.51v19.78c0,18.79,7.03,27.51,25.91,27.51c19.08,0,23.56-12.94,23.56-26.41c0-26.96-7.64-34.77-51.59-59.17
		c-48.48-27.26-73.41-43.39-73.41-85.47c0-40.8,20.36-78.4,101.9-78.4c86.58,0,99.35,39.18,99.35,71.88v16.44h-78.17V82.56
		c0-17.33-4.29-25.91-20.66-25.91c-15.27,0-20.21,8.72-20.21,24.9c0,17.2,4.71,25.7,40.31,44.12c63.3,33.01,86.02,51.54,86.02,98.58
		c0,44.72-23.03,81.57-108.54,81.57c-82.11,0-105.54-32.87-105.54-75.2v-17.12H648.49z"/>
	
		<linearGradient id="SVGID_00000124845155422277056480000011532315154800424341_" gradientUnits="userSpaceOnUse" x1="815.2714" y1="266.976" x2="897.711" y2="266.976">
		<stop  offset="0" style="stop-color:#FFFFFF"/>
		<stop  offset="1" style="stop-color:#000000"/>
	</linearGradient>
	<path style="fill:url(#SVGID_00000124845155422277056480000011532315154800424341_);stroke:#0000EB;stroke-miterlimit:10;" d="
		M815.27,301.55V232.4h82.44v69.15H815.27z"/>
	
		<linearGradient id="SVGID_00000134962484411076086120000009269985205414889116_" gradientUnits="userSpaceOnUse" x1="933.8339" y1="158.7298" x2="1147.0619" y2="158.7298">
		<stop  offset="0" style="stop-color:#FFFFFF"/>
		<stop  offset="1" style="stop-color:#000000"/>
	</linearGradient>
	<path style="fill:url(#SVGID_00000134962484411076086120000009269985205414889116_);stroke:#0000EB;stroke-miterlimit:10;" d="
		M1147.06,208.32v15.47c0,36.04-10,82.05-108.68,82.05c-72.89,0-104.55-25.77-104.55-78.28V87.49c0-49.68,37.34-75.86,106.29-75.86
		c90.92,0,105.68,39.72,105.68,77.1v17.93h-83.35V82.28c0-15.72-5.05-23.68-22.34-23.68c-17.05,0-22.56,7.51-22.56,23.68v151.06
		c0,15.24,3.83,25.65,22.52,25.65c17.89,0,23.2-8.75,23.2-26.94v-23.73H1147.06z"/>
	
		<linearGradient id="SVGID_00000003788667680806945140000011012321209005010866_" gradientUnits="userSpaceOnUse" x1="1183.5795" y1="266.976" x2="1266.0192" y2="266.976">
		<stop  offset="0" style="stop-color:#FFFFFF"/>
		<stop  offset="1" style="stop-color:#000000"/>
	</linearGradient>
	<path style="fill:url(#SVGID_00000003788667680806945140000011012321209005010866_);stroke:#0000EB;stroke-miterlimit:10;" d="
		M1183.58,301.55V232.4h82.44v69.15H1183.58z"/>
</g>
<g>
	<g>
	</g>
</g>
<g>
	<path class="st6" d="M218.99,370.38c-11.55,0-17.32-9.04-17.32-27.11c0-8.57,1.46-15.2,4.37-19.9c2.91-4.7,7.02-7.05,12.33-7.05
		c2.56,0,4.8,0.57,6.7,1.72c1.9,1.15,3.29,2.78,4.16,4.91l-3.87,5.44c-0.79-1.68-1.78-2.97-3-3.89c-1.21-0.91-2.53-1.37-3.94-1.37
		c-3.37,0-6.07,1.72-8.1,5.15c-2.03,3.43-3.05,8.31-3.05,14.63c0,13.78,4.2,20.67,12.61,20.67c2.53,0,5.02-0.74,7.48-2.22l1.2,6.52
		C225.53,369.54,222.34,370.38,218.99,370.38z"/>
	<path class="st6" d="M246.52,370.38c-3.84,0-6.82-1.78-8.95-5.33c-2.13-3.56-3.19-8.57-3.19-15.03c0-6.49,1.06-11.51,3.19-15.06
		c2.13-3.54,5.11-5.31,8.95-5.31c3.85,0,6.84,1.77,8.96,5.31c2.12,3.54,3.18,8.56,3.18,15.06c0,6.47-1.06,11.48-3.18,15.03
		C253.36,368.6,250.37,370.38,246.52,370.38z M246.52,363.35c2.04,0,3.62-1.16,4.72-3.48c1.11-2.32,1.66-5.6,1.66-9.85
		c0-4.27-0.55-7.56-1.66-9.87c-1.11-2.31-2.68-3.46-4.72-3.46c-2.04,0-3.62,1.16-4.72,3.46c-1.11,2.31-1.66,5.6-1.66,9.87
		c0,4.25,0.55,7.53,1.66,9.85C242.9,362.19,244.48,363.35,246.52,363.35z"/>
	<path class="st6" d="M264.31,369.64v-6.89h18.53v6.89H264.31z M265.36,337.27v-6.89h9.26l0.52,6.89H265.36z M270.49,369.64v-39.26
		h4.5l1.05,11.26v28H270.49z M276.04,352.76l-1.62-12.3h2.15c0.31-7.21,2.86-10.81,7.64-10.81c2.86,0,4.94,1.16,6.23,3.48
		c1.29,2.32,1.94,6.07,1.94,11.26h-5.5c0-2.86-0.3-4.92-0.9-6.18c-0.6-1.26-1.57-1.89-2.92-1.89c-2.36,0-4.11,1.43-5.27,4.28
		C276.62,343.44,276.04,347.5,276.04,352.76z"/>
	<path class="st6" d="M298.02,386.68v-56.29h5.02l0.52,8.3v48H298.02z M311.44,370.38c-2.13,0-3.84-0.69-5.14-2.07
		c-1.3-1.38-2.04-3.31-2.21-5.78h-2.41l1.88-11.18c0,4.05,0.56,7.12,1.69,9.22c1.12,2.1,2.78,3.15,4.96,3.15
		c2.23,0,3.93-1.12,5.08-3.37c1.15-2.25,1.73-5.57,1.73-9.96c0-4.64-0.58-8.15-1.73-10.52c-1.15-2.37-2.84-3.55-5.08-3.55
		c-2.18,0-3.83,1.05-4.96,3.15c-1.13,2.1-1.69,5.17-1.69,9.22l-1.88-11.18h2.15c0.24-2.47,1.03-4.39,2.37-5.78
		c1.33-1.38,3.08-2.07,5.25-2.07c3.65,0,6.4,1.75,8.27,5.26c1.87,3.51,2.8,8.66,2.8,15.48c0,6.57-0.94,11.54-2.8,14.92
		C317.85,368.69,315.09,370.38,311.44,370.38z"/>
	<path class="st6" d="M340.73,370.38c-3.84,0-6.82-1.78-8.95-5.33c-2.13-3.56-3.19-8.57-3.19-15.03c0-6.49,1.06-11.51,3.19-15.06
		c2.13-3.54,5.11-5.31,8.95-5.31c3.85,0,6.84,1.77,8.96,5.31c2.12,3.54,3.18,8.56,3.18,15.06c0,6.47-1.06,11.48-3.18,15.03
		C347.57,368.6,344.58,370.38,340.73,370.38z M340.73,363.35c2.04,0,3.61-1.16,4.72-3.48c1.11-2.32,1.66-5.6,1.66-9.85
		c0-4.27-0.55-7.56-1.66-9.87c-1.11-2.31-2.68-3.46-4.72-3.46c-2.04,0-3.62,1.16-4.72,3.46c-1.11,2.31-1.66,5.6-1.66,9.87
		c0,4.25,0.55,7.53,1.66,9.85C337.11,362.19,338.69,363.35,340.73,363.35z"/>
	<path class="st6" d="M358.52,369.64v-6.89h18.53v6.89H358.52z M359.57,337.27v-6.89h9.26l0.52,6.89H359.57z M364.7,369.64v-39.26
		h4.5l1.05,11.26v28H364.7z M370.25,352.76l-1.62-12.3h2.15c0.31-7.21,2.86-10.81,7.64-10.81c2.86,0,4.94,1.16,6.23,3.48
		c1.29,2.32,1.94,6.07,1.94,11.26h-5.5c0-2.86-0.3-4.92-0.9-6.18c-0.6-1.26-1.57-1.89-2.92-1.89c-2.36,0-4.11,1.43-5.27,4.28
		C370.83,343.44,370.25,347.5,370.25,352.76z"/>
	<path class="st6" d="M399.45,370.38c-2.9,0-5.14-0.99-6.73-2.96c-1.59-1.98-2.38-4.77-2.38-8.37c0-4.15,1.1-7.33,3.28-9.56
		c2.19-2.22,5.28-3.33,9.28-3.33c1.66,0,3.14,0.14,4.43,0.43c1.3,0.28,2.46,0.71,3.47,1.28l-1.15,5.33
		c-1.17-0.37-2.31-0.59-3.43-0.65c-1.12-0.06-2.26-0.09-3.43-0.09c-4.82,0-7.22,2.07-7.22,6.22c0,1.73,0.41,3.06,1.24,4
		c0.83,0.94,2,1.41,3.52,1.41c1.73,0,3.17-0.42,4.33-1.26c1.16-0.84,2.03-1.91,2.6-3.22s0.86-2.65,0.86-4.04v-4.3l1.62,10.07h-2.2
		l0.89-1.19c0,2.27-0.37,4.17-1.11,5.68c-0.74,1.52-1.78,2.65-3.13,3.41C402.87,370.01,401.28,370.38,399.45,370.38z M409.24,370.01
		l-0.37-11.63l-0.73-3.26v-10.15c0-2.62-0.65-4.54-1.95-5.76c-1.3-1.22-3.23-1.88-5.8-1.98l-6.65-0.26l0.52-6.96l5.6,0.11
		c4.59,0.1,7.99,1.5,10.22,4.2c2.23,2.7,3.34,6.65,3.34,11.83v16.37l4.71,0.81v6.3L409.24,370.01z"/>
	<path class="st6" d="M437.61,370.38c-4.73,0-8.38-1.76-10.95-5.28c-2.57-3.52-3.86-8.57-3.86-15.17c0-6.42,1.22-11.41,3.65-14.96
		c2.43-3.55,5.91-5.33,10.43-5.33c2.7,0,5.02,0.71,6.95,2.13c1.93,1.42,3.3,3.43,4.12,6.02l-4.27,4.56c-0.79-1.8-1.79-3.2-3.01-4.18
		c-1.22-0.99-2.56-1.48-4-1.48c-2.62,0-4.65,1.12-6.1,3.35s-2.17,5.41-2.17,9.53c0,4.47,0.85,7.88,2.55,10.24
		c1.7,2.36,4.13,3.54,7.29,3.54c1.29,0,2.58-0.09,3.87-0.26c1.29-0.17,2.55-0.41,3.77-0.7l0.63,6.89c-1.43,0.44-2.91,0.74-4.44,0.89
		C440.54,370.31,439.05,370.38,437.61,370.38z"/>
	<path class="st6" d="M454.83,369.64v-6.89h11.09v6.89H454.83z M456.4,337.27v-6.89h14.55v6.89H456.4z M467.99,324.17
		c-1.06,0-1.97-0.54-2.73-1.61c-0.76-1.07-1.14-2.36-1.14-3.87c0-1.53,0.38-2.83,1.14-3.89c0.76-1.06,1.67-1.59,2.73-1.59
		c1.08,0,2,0.53,2.75,1.59c0.75,1.06,1.13,2.36,1.13,3.89c0,1.51-0.38,2.8-1.13,3.87C469.99,323.63,469.07,324.17,467.99,324.17z
		 M465.4,369.64v-37.03h5.55v37.03H465.4z M470.42,369.64v-6.89h9.06v6.89H470.42z"/>
	<path class="st6" d="M497.74,370.38c-3.84,0-6.82-1.78-8.95-5.33c-2.13-3.56-3.19-8.57-3.19-15.03c0-6.49,1.06-11.51,3.19-15.06
		c2.13-3.54,5.11-5.31,8.95-5.31c3.85,0,6.84,1.77,8.96,5.31c2.12,3.54,3.18,8.56,3.18,15.06c0,6.47-1.06,11.48-3.18,15.03
		C504.59,368.6,501.6,370.38,497.74,370.38z M497.74,363.35c2.04,0,3.61-1.16,4.72-3.48c1.11-2.32,1.66-5.6,1.66-9.85
		c0-4.27-0.55-7.56-1.66-9.87c-1.11-2.31-2.68-3.46-4.72-3.46c-2.04,0-3.62,1.16-4.72,3.46c-1.11,2.31-1.66,5.6-1.66,9.87
		c0,4.25,0.55,7.53,1.66,9.85C494.13,362.19,495.7,363.35,497.74,363.35z M495.1,323.43l4.45-14.07h5.55l-4.97,14.07H495.1z"/>
	<path class="st6" d="M517.84,369.64v-39.26h5.02l0.52,8.3v30.96H517.84z M534.9,369.64v-25.55c0-2.37-0.43-4.2-1.31-5.48
		c-0.87-1.28-2.09-1.93-3.66-1.93c-4.36,0-6.54,3.63-6.54,10.89l-1.62-10.07h2.15c0.16-2.64,0.84-4.61,2.04-5.91
		c1.2-1.3,2.97-1.94,5.29-1.94c2.93,0,5.2,1.26,6.8,3.78c1.61,2.52,2.41,6.07,2.41,10.66v25.55H534.9z"/>
	<path class="st6" d="M590.67,370.38c-2.11,0-4.09-0.24-5.93-0.72c-1.84-0.48-3.55-1.2-5.12-2.17l0.68-7.48
		c1.92,1.16,3.77,2.04,5.56,2.65c1.79,0.61,3.53,0.91,5.22,0.91c2.44,0,4.26-0.6,5.44-1.82c1.19-1.21,1.78-3.05,1.78-5.52
		c0-3.13-1.13-5.43-3.4-6.89l-6.44-4.15c-2.53-1.63-4.47-3.59-5.82-5.89c-1.35-2.3-2.03-5.15-2.03-8.55c0-4.59,0.98-8.15,2.93-10.67
		c1.95-2.52,4.72-3.78,8.29-3.78c2.5,0,4.7,0.52,6.62,1.55c1.92,1.04,3.77,2.73,5.55,5.07l-3.66,5.26c-1.53-1.78-2.97-3.07-4.3-3.87
		c-1.33-0.8-2.73-1.2-4.17-1.2c-1.8,0-3.19,0.61-4.17,1.83c-0.99,1.22-1.48,3.03-1.48,5.43c0,1.7,0.32,3.09,0.97,4.17
		c0.65,1.07,1.6,2.03,2.85,2.87l5.44,3.63c2.76,1.83,4.85,3.89,6.28,6.18c1.43,2.3,2.15,5.25,2.15,8.85c0,4.77-1.1,8.34-3.28,10.72
		C598.44,369.19,595.12,370.38,590.67,370.38z"/>
	<path class="st6" d="M623.36,370.38c-3.84,0-6.82-1.78-8.95-5.33c-2.13-3.56-3.19-8.57-3.19-15.03c0-6.49,1.06-11.51,3.19-15.06
		c2.13-3.54,5.11-5.31,8.95-5.31c3.85,0,6.84,1.77,8.96,5.31c2.12,3.54,3.18,8.56,3.18,15.06c0,6.47-1.06,11.48-3.18,15.03
		C630.2,368.6,627.21,370.38,623.36,370.38z M623.36,363.35c2.04,0,3.61-1.16,4.72-3.48c1.11-2.32,1.66-5.6,1.66-9.85
		c0-4.27-0.55-7.56-1.66-9.87c-1.11-2.31-2.68-3.46-4.72-3.46c-2.04,0-3.62,1.16-4.72,3.46c-1.11,2.31-1.66,5.6-1.66,9.87
		c0,4.25,0.55,7.53,1.66,9.85C619.74,362.19,621.31,363.35,623.36,363.35z"/>
	<path class="st6" d="M657.43,370.38c-4.73,0-8.38-1.76-10.95-5.28c-2.57-3.52-3.86-8.57-3.86-15.17c0-6.42,1.22-11.41,3.65-14.96
		c2.43-3.55,5.91-5.33,10.43-5.33c2.7,0,5.02,0.71,6.95,2.13c1.93,1.42,3.3,3.43,4.12,6.02l-4.27,4.56c-0.79-1.8-1.79-3.2-3.01-4.18
		c-1.22-0.99-2.56-1.48-4-1.48c-2.62,0-4.65,1.12-6.1,3.35c-1.45,2.23-2.17,5.41-2.17,9.53c0,4.47,0.85,7.88,2.55,10.24
		c1.7,2.36,4.13,3.54,7.29,3.54c1.29,0,2.58-0.09,3.87-0.26c1.29-0.17,2.55-0.41,3.77-0.7l0.63,6.89c-1.43,0.44-2.91,0.74-4.44,0.89
		C660.36,370.31,658.88,370.38,657.43,370.38z"/>
	<path class="st6" d="M674.65,369.64v-6.89h11.09v6.89H674.65z M676.22,337.27v-6.89h14.55v6.89H676.22z M687.81,324.17
		c-1.06,0-1.97-0.54-2.73-1.61c-0.76-1.07-1.14-2.36-1.14-3.87c0-1.53,0.38-2.83,1.14-3.89c0.76-1.06,1.67-1.59,2.73-1.59
		c1.08,0,2,0.53,2.75,1.59c0.75,1.06,1.13,2.36,1.13,3.89c0,1.51-0.38,2.8-1.13,3.87C689.81,323.63,688.89,324.17,687.81,324.17z
		 M685.22,369.64v-37.03h5.55v37.03H685.22z M690.24,369.64v-6.89h9.06v6.89H690.24z"/>
	<path class="st6" d="M713.48,370.38c-2.9,0-5.14-0.99-6.73-2.96c-1.59-1.98-2.38-4.77-2.38-8.37c0-4.15,1.1-7.33,3.28-9.56
		c2.19-2.22,5.28-3.33,9.28-3.33c1.66,0,3.14,0.14,4.43,0.43c1.3,0.28,2.46,0.71,3.47,1.28l-1.15,5.33
		c-1.17-0.37-2.31-0.59-3.43-0.65c-1.12-0.06-2.26-0.09-3.43-0.09c-4.82,0-7.22,2.07-7.22,6.22c0,1.73,0.41,3.06,1.24,4
		c0.83,0.94,2,1.41,3.52,1.41c1.73,0,3.17-0.42,4.33-1.26c1.16-0.84,2.03-1.91,2.6-3.22c0.58-1.31,0.86-2.65,0.86-4.04v-4.3
		l1.62,10.07h-2.2l0.89-1.19c0,2.27-0.37,4.17-1.11,5.68c-0.74,1.52-1.78,2.65-3.13,3.41S715.31,370.38,713.48,370.38z
		 M723.27,370.01l-0.37-11.63l-0.73-3.26v-10.15c0-2.62-0.65-4.54-1.95-5.76c-1.3-1.22-3.23-1.88-5.8-1.98l-6.65-0.26l0.52-6.96
		l5.6,0.11c4.59,0.1,7.99,1.5,10.22,4.2c2.23,2.7,3.34,6.65,3.34,11.83v16.37l4.71,0.81v6.3L723.27,370.01z"/>
	<path class="st6" d="M735.83,320.98v-6.89h8.64v6.89H735.83z M753.1,370.38c-3.21,0-5.53-1.23-6.96-3.7
		c-1.43-2.47-2.15-6.42-2.15-11.85v-40.74h5.55v40.37c0,2.07,0.14,3.76,0.42,5.07c0.28,1.31,0.82,2.27,1.63,2.89
		c0.81,0.62,2.01,0.93,3.6,0.93c1.45,0,3.3-0.47,5.55-1.41l0.63,6.89c-1.41,0.54-2.77,0.94-4.07,1.18
		C756,370.26,754.6,370.38,753.1,370.38z"/>
	<path class="st6" d="M809.65,370.38c-3.63,0-6.38-1.69-8.26-5.07c-1.88-3.38-2.81-8.36-2.81-14.92c0-6.81,0.94-11.97,2.81-15.48
		c1.87-3.51,4.63-5.26,8.26-5.26c2.08,0,3.76,0.69,5.06,2.07c1.3,1.38,2.06,3.31,2.29,5.78h2.15l-1.62,11.18
		c0-4.05-0.56-7.12-1.69-9.22c-1.12-2.1-2.78-3.15-4.96-3.15c-2.23,0-3.93,1.18-5.08,3.55s-1.73,5.88-1.73,10.52
		c0,4.39,0.58,7.72,1.73,9.96c1.15,2.25,2.84,3.37,5.08,3.37c2.18,0,3.84-1.05,4.96-3.15c1.12-2.1,1.69-5.17,1.69-9.22l1.89,11.18
		h-2.41c-0.17,2.47-0.91,4.39-2.21,5.78C813.5,369.69,811.78,370.38,809.65,370.38z M818.11,370.01l-0.58-7.7v-48.22h5.55v55.55
		L818.11,370.01z"/>
	<path class="st6" d="M845.58,370.38c-4.73,0-8.38-1.76-10.95-5.28c-2.57-3.52-3.86-8.57-3.86-15.17c0-6.42,1.09-11.41,3.27-14.96
		c2.18-3.55,5.26-5.33,9.24-5.33c3.75,0,6.65,1.6,8.7,4.81c2.05,3.21,3.07,7.88,3.07,14c0,1.8-0.05,3.48-0.16,5.04h-19.47v-6h14.6
		c0-3.53-0.59-6.24-1.78-8.13c-1.19-1.89-2.83-2.83-4.92-2.83c-2.36,0-4.18,1.14-5.48,3.41s-1.95,5.48-1.95,9.63
		c0,4.54,0.89,8,2.68,10.37c1.79,2.37,4.33,3.55,7.63,3.55c1.15,0,2.29-0.09,3.4-0.28c1.12-0.18,2.25-0.44,3.4-0.76l0.68,6.89
		c-1.64,0.44-3.14,0.73-4.5,0.85C847.83,370.32,846.63,370.38,845.58,370.38z"/>
	<path class="st6" d="M909.86,370.38c-11.55,0-17.32-9.04-17.32-27.11c0-8.57,1.46-15.2,4.37-19.9c2.91-4.7,7.02-7.05,12.33-7.05
		c2.56,0,4.8,0.57,6.7,1.72c1.9,1.15,3.29,2.78,4.16,4.91l-3.87,5.44c-0.79-1.68-1.78-2.97-3-3.89c-1.21-0.91-2.53-1.37-3.94-1.37
		c-3.37,0-6.07,1.72-8.1,5.15c-2.03,3.43-3.05,8.31-3.05,14.63c0,13.78,4.2,20.67,12.61,20.67c2.53,0,5.02-0.74,7.48-2.22l1.2,6.52
		C916.4,369.54,913.21,370.38,909.86,370.38z"/>
	<path class="st6" d="M934.67,370.38c-2.92,0-5.17-1.23-6.77-3.68c-1.6-2.46-2.4-5.92-2.4-10.39v-25.92h5.55v25.92
		c0,2.25,0.45,3.98,1.36,5.2c0.91,1.22,2.18,1.83,3.82,1.83c2.02,0,3.55-0.91,4.58-2.72c1.03-1.81,1.54-4.86,1.54-9.13l1.41,10.59
		h-1.83c-0.44,2.67-1.29,4.72-2.56,6.15C938.1,369.67,936.53,370.38,934.67,370.38z M942.36,358.53v-28.15h5.55v25.92L942.36,358.53
		z M942.83,370.01l-0.47-9.41v-6.89h5.55v8.81l3.82,0.81v6.3L942.83,370.01z"/>
	<path class="st6" d="M957.48,369.64v-39.26h5.02l0.52,8.3v30.96H957.48z M974.54,369.64v-25.55c0-2.37-0.43-4.2-1.31-5.48
		c-0.87-1.28-2.09-1.93-3.66-1.93c-4.36,0-6.54,3.63-6.54,10.89l-1.62-10.07h2.15c0.16-2.64,0.84-4.61,2.04-5.91
		c1.2-1.3,2.97-1.94,5.29-1.94c2.93,0,5.2,1.26,6.8,3.78c1.61,2.52,2.41,6.07,2.41,10.66v25.55H974.54z"/>
	<path class="st6" d="M998.07,370.38c-3.63,0-6.38-1.69-8.26-5.07c-1.88-3.38-2.81-8.36-2.81-14.92c0-6.81,0.94-11.97,2.81-15.48
		c1.87-3.51,4.63-5.26,8.26-5.26c2.08,0,3.76,0.69,5.06,2.07c1.3,1.38,2.06,3.31,2.29,5.78h2.15l-1.62,11.18
		c0-4.05-0.56-7.12-1.69-9.22c-1.12-2.1-2.78-3.15-4.96-3.15c-2.23,0-3.93,1.18-5.08,3.55s-1.73,5.88-1.73,10.52
		c0,4.39,0.58,7.72,1.73,9.96c1.15,2.25,2.84,3.37,5.08,3.37c2.18,0,3.84-1.05,4.96-3.15c1.12-2.1,1.69-5.17,1.69-9.22l1.89,11.18
		h-2.41c-0.17,2.47-0.91,4.39-2.21,5.78C1001.91,369.69,1000.2,370.38,998.07,370.38z M1006.53,370.01l-0.58-7.7v-48.22h5.55v55.55
		L1006.53,370.01z"/>
	<path class="st6" d="M1020.08,369.64v-6.89h11.09v6.89H1020.08z M1021.65,337.27v-6.89h14.55v6.89H1021.65z M1033.24,324.17
		c-1.06,0-1.97-0.54-2.73-1.61c-0.76-1.07-1.14-2.36-1.14-3.87c0-1.53,0.38-2.83,1.14-3.89c0.76-1.06,1.67-1.59,2.73-1.59
		c1.08,0,2,0.53,2.75,1.59c0.75,1.06,1.13,2.36,1.13,3.89c0,1.51-0.38,2.8-1.13,3.87C1035.24,323.63,1034.33,324.17,1033.24,324.17z
		 M1030.65,369.64v-37.03h5.55v37.03H1030.65z M1035.68,369.64v-6.89h9.06v6.89H1035.68z"/>
	<path class="st6" d="M1051.69,369.64v-39.26h5.02l0.52,8.3v30.96H1051.69z M1068.75,369.64v-25.55c0-2.37-0.43-4.2-1.31-5.48
		c-0.87-1.28-2.09-1.93-3.66-1.93c-4.36,0-6.54,3.63-6.54,10.89l-1.62-10.07h2.15c0.16-2.64,0.84-4.61,2.04-5.91
		c1.2-1.3,2.97-1.94,5.29-1.94c2.93,0,5.2,1.26,6.8,3.78c1.61,2.52,2.41,6.07,2.41,10.66v25.55H1068.75z"/>
	<path class="st6" d="M1090.32,370.38c-2.9,0-5.14-0.99-6.73-2.96c-1.59-1.98-2.38-4.77-2.38-8.37c0-4.15,1.1-7.33,3.28-9.56
		c2.19-2.22,5.28-3.33,9.28-3.33c1.66,0,3.14,0.14,4.43,0.43c1.3,0.28,2.46,0.71,3.47,1.28l-1.15,5.33
		c-1.17-0.37-2.31-0.59-3.43-0.65c-1.12-0.06-2.26-0.09-3.43-0.09c-4.82,0-7.22,2.07-7.22,6.22c0,1.73,0.41,3.06,1.24,4
		c0.83,0.94,2,1.41,3.52,1.41c1.73,0,3.17-0.42,4.33-1.26c1.16-0.84,2.03-1.91,2.6-3.22c0.58-1.31,0.86-2.65,0.86-4.04v-4.3
		l1.62,10.07h-2.2l0.89-1.19c0,2.27-0.37,4.17-1.11,5.68c-0.74,1.52-1.78,2.65-3.13,3.41S1092.15,370.38,1090.32,370.38z
		 M1100.11,370.01l-0.37-11.63l-0.73-3.26v-10.15c0-2.62-0.65-4.54-1.95-5.76c-1.3-1.22-3.23-1.88-5.8-1.98l-6.65-0.26l0.52-6.96
		l5.6,0.11c4.59,0.1,7.99,1.5,10.22,4.2c2.23,2.7,3.34,6.65,3.34,11.83v16.37l4.71,0.81v6.3L1100.11,370.01z"/>
	<path class="st6" d="M1113.03,369.64v-39.26h4.92l0.63,8.3v30.96H1113.03z M1123.45,369.64v-30.74c0-2.22-0.73-3.33-2.2-3.33
		c-1.78,0-2.67,1.78-2.67,5.33l-1.62-5.63h1.78c0.21-3.75,1.8-5.63,4.76-5.63c1.45,0,2.58,0.7,3.41,2.11
		c0.83,1.41,1.24,3.54,1.24,6.41v31.48H1123.45z M1133.03,369.64v-30c0-2.72-0.71-4.07-2.15-4.07c-1.81,0-2.72,1.78-2.72,5.33
		l-1.89-5.63h2.15c0.09-1.53,0.52-2.85,1.29-3.96c0.78-1.11,1.9-1.67,3.36-1.67c1.92,0,3.31,0.73,4.19,2.18
		c0.87,1.46,1.31,3.82,1.31,7.07v30.74H1133.03z"/>
	<path class="st6" d="M1153.13,370.38c-2.9,0-5.14-0.99-6.73-2.96c-1.59-1.98-2.38-4.77-2.38-8.37c0-4.15,1.1-7.33,3.28-9.56
		c2.19-2.22,5.28-3.33,9.28-3.33c1.66,0,3.14,0.14,4.43,0.43c1.3,0.28,2.46,0.71,3.47,1.28l-1.15,5.33
		c-1.17-0.37-2.31-0.59-3.43-0.65c-1.12-0.06-2.26-0.09-3.43-0.09c-4.82,0-7.22,2.07-7.22,6.22c0,1.73,0.41,3.06,1.24,4
		c0.83,0.94,2,1.41,3.52,1.41c1.73,0,3.17-0.42,4.33-1.26c1.16-0.84,2.03-1.91,2.6-3.22c0.58-1.31,0.86-2.65,0.86-4.04v-4.3
		l1.62,10.07h-2.2l0.89-1.19c0,2.27-0.37,4.17-1.11,5.68c-0.74,1.52-1.78,2.65-3.13,3.41S1154.96,370.38,1153.13,370.38z
		 M1162.91,370.01l-0.37-11.63l-0.73-3.26v-10.15c0-2.62-0.65-4.54-1.95-5.76c-1.3-1.22-3.23-1.88-5.8-1.98l-6.65-0.26l0.52-6.96
		l5.6,0.11c4.59,0.1,7.99,1.5,10.22,4.2c2.23,2.7,3.34,6.65,3.34,11.83v16.37l4.71,0.81v6.3L1162.91,370.01z"/>
	<path class="st6" d="M1175,369.64v-6.89h18.53v6.89H1175z M1176.05,337.27v-6.89h9.26l0.52,6.89H1176.05z M1181.18,369.64v-39.26
		h4.5l1.05,11.26v28H1181.18z M1186.72,352.76l-1.62-12.3h2.15c0.31-7.21,2.86-10.81,7.64-10.81c2.86,0,4.94,1.16,6.23,3.48
		c1.29,2.32,1.94,6.07,1.94,11.26h-5.5c0-2.86-0.3-4.92-0.9-6.18c-0.6-1.26-1.57-1.89-2.92-1.89c-2.36,0-4.11,1.43-5.27,4.28
		C1187.3,343.44,1186.72,347.5,1186.72,352.76z"/>
	<path class="st6" d="M1222.68,370.38c-4.73,0-8.38-1.76-10.95-5.28c-2.57-3.52-3.86-8.57-3.86-15.17c0-6.42,1.22-11.41,3.65-14.96
		c2.43-3.55,5.91-5.33,10.43-5.33c2.7,0,5.02,0.71,6.95,2.13c1.93,1.42,3.3,3.43,4.12,6.02l-4.27,4.56c-0.79-1.8-1.79-3.2-3.01-4.18
		c-1.22-0.99-2.56-1.48-4-1.48c-2.62,0-4.65,1.12-6.1,3.35c-1.45,2.23-2.17,5.41-2.17,9.53c0,4.47,0.85,7.88,2.55,10.24
		c1.7,2.36,4.13,3.54,7.29,3.54c1.29,0,2.58-0.09,3.87-0.26c1.29-0.17,2.55-0.41,3.77-0.7l0.63,6.89c-1.43,0.44-2.91,0.74-4.44,0.89
		C1225.62,370.31,1224.13,370.38,1222.68,370.38z"/>
	<path class="st6" d="M1247.34,370.38c-2.9,0-5.14-0.99-6.73-2.96c-1.59-1.98-2.38-4.77-2.38-8.37c0-4.15,1.1-7.33,3.28-9.56
		c2.19-2.22,5.28-3.33,9.28-3.33c1.66,0,3.14,0.14,4.43,0.43c1.3,0.28,2.46,0.71,3.47,1.28l-1.15,5.33
		c-1.17-0.37-2.31-0.59-3.43-0.65c-1.12-0.06-2.26-0.09-3.43-0.09c-4.82,0-7.22,2.07-7.22,6.22c0,1.73,0.41,3.06,1.24,4
		c0.83,0.94,2,1.41,3.52,1.41c1.73,0,3.17-0.42,4.33-1.26c1.16-0.84,2.03-1.91,2.6-3.22c0.58-1.31,0.86-2.65,0.86-4.04v-4.3
		l1.62,10.07h-2.2l0.89-1.19c0,2.27-0.37,4.17-1.11,5.68c-0.74,1.52-1.78,2.65-3.13,3.41S1249.17,370.38,1247.34,370.38z
		 M1257.12,370.01l-0.37-11.63l-0.73-3.26v-10.15c0-2.62-0.65-4.54-1.95-5.76c-1.3-1.22-3.23-1.88-5.8-1.98l-6.65-0.26l0.52-6.96
		l5.6,0.11c4.59,0.1,7.99,1.5,10.22,4.2c2.23,2.7,3.34,6.65,3.34,11.83v16.37l4.71,0.81v6.3L1257.12,370.01z"/>
</g>
</svg>
