<?xml version="1.0" encoding="utf-8"?>
<!-- Generator: Adobe Illustrator 26.4.1, SVG Export Plug-In . SVG Version: 6.00 Build 0)  -->
<svg version="1.1" id="Capa_1" xmlns="http://www.w3.org/2000/svg" xmlns:xlink="http://www.w3.org/1999/xlink" x="0px" y="0px"
	 viewBox="0 0 1280 1024" style="enable-background:new 0 0 1280 1024;" xml:space="preserve">
<style type="text/css">
	.st0{fill:#00008E;stroke:#0000EB;stroke-miterlimit:10;}
	.st1{fill:#00E7CA;}
</style>
<g>
	<g>
		<path class="st0" d="M463.83,304.06v3.25c0,7.56-2.33,17.22-25.28,17.22c-16.96,0-24.32-5.41-24.32-16.43v-29.4
			c0-10.43,8.69-15.92,24.72-15.92c21.15,0,24.58,8.34,24.58,16.18v3.76h-19.39v-5.12c0-3.3-1.18-4.97-5.2-4.97
			c-3.97,0-5.25,1.58-5.25,4.97v31.71c0,3.2,0.89,5.38,5.24,5.38c4.16,0,5.4-1.84,5.4-5.65v-4.98H463.83z"/>
		<path class="st0" d="M470.98,323.63v-14.51h19.18v14.51H470.98z"/>
		<path class="st0" d="M516.5,305.15v4.15c0,3.94,1.63,5.77,6.03,5.77c4.44,0,5.48-2.72,5.48-5.54c0-5.66-1.78-7.3-12-12.42
			c-11.28-5.72-17.08-9.11-17.08-17.94c0-8.56,4.74-16.46,23.7-16.46c20.14,0,23.11,8.22,23.11,15.09v3.45h-18.18v-3.59
			c0-3.64-1-5.44-4.81-5.44c-3.55,0-4.7,1.83-4.7,5.23c0,3.61,1.1,5.39,9.38,9.26c14.72,6.93,20.01,10.82,20.01,20.69
			c0,9.39-5.36,17.12-25.25,17.12c-19.1,0-24.55-6.9-24.55-15.78v-3.59H516.5z"/>
		<path class="st0" d="M555.3,323.63v-14.51h19.18v14.51H555.3z"/>
		<path class="st0" d="M633.38,304.06v3.25c0,7.56-2.33,17.22-25.28,17.22c-16.96,0-24.32-5.41-24.32-16.43v-29.4
			c0-10.43,8.69-15.92,24.72-15.92c21.15,0,24.58,8.34,24.58,16.18v3.76H613.7v-5.12c0-3.3-1.18-4.97-5.2-4.97
			c-3.97,0-5.25,1.58-5.25,4.97v31.71c0,3.2,0.89,5.38,5.24,5.38c4.16,0,5.4-1.84,5.4-5.65v-4.98H633.38z"/>
		<path class="st0" d="M640.52,323.63v-14.51h19.18v14.51H640.52z"/>
	</g>
</g>
<g>
	<g>
	</g>
</g>
<g>
	<g>
		<path class="st1" d="M297.38,369c-5.11,0-7.67-4.73-7.67-14.2c0-4.49,0.65-7.97,1.94-10.43c1.29-2.46,3.11-3.7,5.46-3.7
			c1.14,0,2.12,0.3,2.97,0.9s1.46,1.46,1.84,2.57l-1.72,2.85c-0.35-0.88-0.79-1.56-1.33-2.04c-0.54-0.48-1.12-0.72-1.74-0.72
			c-1.49,0-2.69,0.9-3.59,2.7c-0.9,1.8-1.35,4.35-1.35,7.66c0,7.22,1.86,10.83,5.59,10.83c1.12,0,2.23-0.39,3.31-1.16l0.53,3.42
			C300.27,368.56,298.86,369,297.38,369z"/>
		<path class="st1" d="M309.57,369c-1.7,0-3.02-0.93-3.96-2.79s-1.41-4.49-1.41-7.88c0-3.4,0.47-6.03,1.41-7.89
			c0.94-1.86,2.26-2.78,3.96-2.78c1.71,0,3.03,0.93,3.97,2.78c0.94,1.86,1.41,4.49,1.41,7.89c0,3.39-0.47,6.02-1.41,7.88
			C312.6,368.07,311.27,369,309.57,369z M309.57,365.32c0.9,0,1.6-0.61,2.09-1.82c0.49-1.22,0.74-2.94,0.74-5.16
			c0-2.24-0.25-3.96-0.74-5.17c-0.49-1.21-1.19-1.81-2.09-1.81s-1.6,0.6-2.09,1.81s-0.74,2.93-0.74,5.17c0,2.23,0.25,3.95,0.74,5.16
			S308.66,365.32,309.57,365.32z"/>
		<path class="st1" d="M317.45,368.62v-3.61h8.2v3.61H317.45z M317.91,351.66v-3.61h4.1l0.23,3.61H317.91z M320.18,368.62v-20.57
			h1.99l0.46,5.9v14.67H320.18z M322.64,359.77l-0.72-6.44h0.95c0.14-3.78,1.27-5.67,3.38-5.67c1.27,0,2.19,0.61,2.76,1.82
			c0.57,1.22,0.86,3.18,0.86,5.9h-2.43c0-1.5-0.13-2.58-0.4-3.24c-0.27-0.66-0.7-0.99-1.29-0.99c-1.04,0-1.82,0.75-2.33,2.24
			S322.64,357.01,322.64,359.77z"/>
		<path class="st1" d="M332.37,377.54v-29.5h2.23l0.23,4.35v25.15H332.37z M338.32,369c-0.94,0-1.7-0.36-2.28-1.09
			c-0.58-0.72-0.9-1.73-0.98-3.03H334l0.83-5.86c0,2.12,0.25,3.73,0.75,4.83c0.5,1.1,1.23,1.65,2.2,1.65c0.99,0,1.74-0.59,2.25-1.77
			c0.51-1.18,0.77-2.92,0.77-5.22c0-2.43-0.25-4.27-0.77-5.51c-0.51-1.24-1.26-1.86-2.25-1.86c-0.97,0-1.7,0.55-2.2,1.65
			c-0.5,1.1-0.75,2.71-0.75,4.83l-0.83-5.86h0.95c0.11-1.29,0.46-2.3,1.05-3.03s1.37-1.09,2.32-1.09c1.61,0,2.83,0.92,3.66,2.76
			c0.83,1.84,1.24,4.54,1.24,8.11c0,3.44-0.41,6.05-1.24,7.82C341.15,368.12,339.93,369,338.32,369z"/>
		<path class="st1" d="M351.29,369c-1.7,0-3.02-0.93-3.96-2.79c-0.94-1.86-1.41-4.49-1.41-7.88c0-3.4,0.47-6.03,1.41-7.89
			c0.94-1.86,2.26-2.78,3.96-2.78c1.71,0,3.03,0.93,3.97,2.78c0.94,1.86,1.41,4.49,1.41,7.89c0,3.39-0.47,6.02-1.41,7.88
			S352.99,369,351.29,369z M351.29,365.32c0.9,0,1.6-0.61,2.09-1.82c0.49-1.22,0.74-2.94,0.74-5.16c0-2.24-0.25-3.96-0.74-5.17
			c-0.49-1.21-1.19-1.81-2.09-1.81c-0.9,0-1.6,0.6-2.09,1.81c-0.49,1.21-0.74,2.93-0.74,5.17c0,2.23,0.25,3.95,0.74,5.16
			C349.68,364.71,350.38,365.32,351.29,365.32z"/>
		<path class="st1" d="M359.17,368.62v-3.61h8.21v3.61H359.17z M359.63,351.66v-3.61h4.1l0.23,3.61H359.63z M361.9,368.62v-20.57
			h1.99l0.46,5.9v14.67H361.9z M364.36,359.77l-0.72-6.44h0.95c0.14-3.78,1.27-5.67,3.38-5.67c1.27,0,2.19,0.61,2.76,1.82
			c0.57,1.22,0.86,3.18,0.86,5.9h-2.43c0-1.5-0.13-2.58-0.4-3.24c-0.27-0.66-0.7-0.99-1.29-0.99c-1.04,0-1.82,0.75-2.33,2.24
			C364.61,354.89,364.36,357.01,364.36,359.77z"/>
		<path class="st1" d="M377.29,369c-1.28,0-2.28-0.52-2.98-1.55c-0.7-1.04-1.05-2.5-1.05-4.39c0-2.17,0.49-3.84,1.45-5.01
			c0.97-1.16,2.34-1.75,4.11-1.75c0.73,0,1.39,0.07,1.96,0.22c0.58,0.15,1.09,0.37,1.54,0.67l-0.51,2.79
			c-0.52-0.19-1.02-0.31-1.52-0.34s-1-0.05-1.52-0.05c-2.13,0-3.2,1.09-3.2,3.26c0,0.91,0.18,1.6,0.55,2.1s0.89,0.74,1.56,0.74
			c0.76,0,1.4-0.22,1.92-0.66s0.9-1,1.15-1.69c0.25-0.69,0.38-1.39,0.38-2.11v-2.25l0.72,5.28h-0.97l0.39-0.62
			c0,1.19-0.16,2.18-0.49,2.98c-0.33,0.8-0.79,1.39-1.38,1.79S378.1,369,377.29,369z M381.62,368.81l-0.16-6.09l-0.33-1.71v-5.32
			c0-1.37-0.29-2.38-0.86-3.02c-0.58-0.64-1.43-0.99-2.57-1.04l-2.94-0.14l0.23-3.65l2.48,0.06c2.03,0.05,3.54,0.79,4.52,2.2
			c0.99,1.42,1.48,3.48,1.48,6.2v8.58l2.09,0.43v3.3L381.62,368.81z"/>
		<path class="st1" d="M394.19,369c-2.09,0-3.71-0.92-4.85-2.77c-1.14-1.84-1.71-4.49-1.71-7.95c0-3.36,0.54-5.98,1.62-7.84
			c1.08-1.86,2.62-2.79,4.62-2.79c1.2,0,2.22,0.37,3.08,1.12c0.85,0.74,1.46,1.79,1.82,3.15l-1.89,2.39
			c-0.35-0.94-0.79-1.67-1.33-2.19c-0.54-0.52-1.13-0.78-1.77-0.78c-1.16,0-2.06,0.59-2.7,1.76s-0.96,2.84-0.96,5
			c0,2.34,0.38,4.13,1.13,5.37c0.75,1.24,1.83,1.85,3.23,1.85c0.57,0,1.14-0.04,1.71-0.14c0.57-0.09,1.13-0.21,1.67-0.37l0.28,3.61
			c-0.63,0.23-1.29,0.39-1.96,0.47C395.48,368.96,394.83,369,394.19,369z"/>
		<path class="st1" d="M401.81,368.62v-3.61h4.91v3.61H401.81z M402.51,351.66v-3.61h6.44v3.61H402.51z M407.64,344.79
			c-0.47,0-0.87-0.28-1.21-0.84c-0.34-0.56-0.5-1.24-0.5-2.03c0-0.8,0.17-1.48,0.5-2.04c0.34-0.56,0.74-0.83,1.21-0.83
			c0.48,0,0.88,0.28,1.22,0.83s0.5,1.24,0.5,2.04c0,0.79-0.17,1.47-0.5,2.03C408.52,344.51,408.12,344.79,407.64,344.79z
			 M406.49,368.62v-19.4h2.46v19.4H406.49z M408.72,368.62v-3.61h4.01v3.61H408.72z"/>
		<path class="st1" d="M420.81,369c-1.7,0-3.02-0.93-3.96-2.79c-0.94-1.86-1.41-4.49-1.41-7.88c0-3.4,0.47-6.03,1.41-7.89
			c0.94-1.86,2.26-2.78,3.96-2.78c1.71,0,3.03,0.93,3.97,2.78c0.94,1.86,1.41,4.49,1.41,7.89c0,3.39-0.47,6.02-1.41,7.88
			S422.52,369,420.81,369z M420.81,365.32c0.9,0,1.6-0.61,2.09-1.82c0.49-1.22,0.74-2.94,0.74-5.16c0-2.24-0.25-3.96-0.74-5.17
			c-0.49-1.21-1.19-1.81-2.09-1.81c-0.9,0-1.6,0.6-2.09,1.81c-0.49,1.21-0.74,2.93-0.74,5.17c0,2.23,0.25,3.95,0.74,5.16
			C419.21,364.71,419.91,365.32,420.81,365.32z M419.64,344.4l1.97-7.37h2.46l-2.2,7.37H419.64z"/>
		<path class="st1" d="M429.72,368.62v-20.57h2.22l0.23,4.35v16.22H429.72z M437.27,368.62v-13.39c0-1.24-0.19-2.2-0.58-2.87
			c-0.39-0.67-0.93-1.01-1.62-1.01c-1.93,0-2.9,1.9-2.9,5.71l-0.72-5.28h0.95c0.07-1.38,0.37-2.42,0.9-3.09s1.31-1.02,2.34-1.02
			c1.3,0,2.3,0.66,3.01,1.98c0.71,1.32,1.07,3.18,1.07,5.59v13.39H437.27z"/>
		<path class="st1" d="M461.97,369c-0.93,0-1.81-0.13-2.62-0.38c-0.82-0.25-1.57-0.63-2.27-1.14l0.3-3.92
			c0.85,0.61,1.67,1.07,2.46,1.39s1.56,0.48,2.31,0.48c1.08,0,1.88-0.32,2.41-0.95c0.53-0.63,0.79-1.6,0.79-2.89
			c0-1.64-0.5-2.85-1.51-3.61l-2.85-2.17c-1.12-0.85-1.98-1.88-2.58-3.08s-0.9-2.7-0.9-4.48c0-2.41,0.43-4.27,1.3-5.59
			c0.87-1.32,2.09-1.98,3.67-1.98c1.11,0,2.08,0.27,2.93,0.81c0.85,0.54,1.67,1.43,2.46,2.66l-1.62,2.76
			c-0.68-0.93-1.32-1.61-1.91-2.03s-1.21-0.63-1.85-0.63c-0.8,0-1.41,0.32-1.85,0.96c-0.44,0.64-0.66,1.59-0.66,2.84
			c0,0.89,0.14,1.62,0.43,2.18s0.71,1.06,1.26,1.5l2.41,1.9c1.22,0.96,2.15,2.04,2.78,3.24c0.63,1.2,0.95,2.75,0.95,4.64
			c0,2.5-0.49,4.37-1.45,5.62C465.41,368.38,463.94,369,461.97,369z"/>
		<path class="st1" d="M476.44,369c-1.7,0-3.02-0.93-3.96-2.79c-0.94-1.86-1.41-4.49-1.41-7.88c0-3.4,0.47-6.03,1.41-7.89
			c0.94-1.86,2.26-2.78,3.96-2.78c1.71,0,3.03,0.93,3.97,2.78c0.94,1.86,1.41,4.49,1.41,7.89c0,3.39-0.47,6.02-1.41,7.88
			S478.15,369,476.44,369z M476.44,365.32c0.9,0,1.6-0.61,2.09-1.82c0.49-1.22,0.74-2.94,0.74-5.16c0-2.24-0.25-3.96-0.74-5.17
			c-0.49-1.21-1.19-1.81-2.09-1.81c-0.9,0-1.6,0.6-2.09,1.81c-0.49,1.21-0.74,2.93-0.74,5.17c0,2.23,0.25,3.95,0.74,5.16
			C474.84,364.71,475.53,365.32,476.44,365.32z"/>
		<path class="st1" d="M491.53,369c-2.09,0-3.71-0.92-4.85-2.77c-1.14-1.84-1.71-4.49-1.71-7.95c0-3.36,0.54-5.98,1.62-7.84
			c1.08-1.86,2.62-2.79,4.62-2.79c1.2,0,2.22,0.37,3.08,1.12c0.85,0.74,1.46,1.79,1.82,3.15l-1.89,2.39
			c-0.35-0.94-0.79-1.67-1.33-2.19c-0.54-0.52-1.13-0.78-1.77-0.78c-1.16,0-2.06,0.59-2.7,1.76s-0.96,2.84-0.96,5
			c0,2.34,0.38,4.13,1.13,5.37c0.75,1.24,1.83,1.85,3.23,1.85c0.57,0,1.14-0.04,1.71-0.14c0.57-0.09,1.13-0.21,1.67-0.37l0.28,3.61
			c-0.63,0.23-1.29,0.39-1.96,0.47C492.83,368.96,492.17,369,491.53,369z"/>
		<path class="st1" d="M499.15,368.62v-3.61h4.91v3.61H499.15z M499.85,351.66v-3.61h6.44v3.61H499.85z M504.98,344.79
			c-0.47,0-0.87-0.28-1.21-0.84c-0.34-0.56-0.5-1.24-0.5-2.03c0-0.8,0.17-1.48,0.5-2.04c0.34-0.56,0.74-0.83,1.21-0.83
			c0.48,0,0.88,0.28,1.22,0.83s0.5,1.24,0.5,2.04c0,0.79-0.17,1.47-0.5,2.03C505.87,344.51,505.46,344.79,504.98,344.79z
			 M503.83,368.62v-19.4h2.46v19.4H503.83z M506.06,368.62v-3.61h4.01v3.61H506.06z"/>
		<path class="st1" d="M516.35,369c-1.28,0-2.28-0.52-2.98-1.55c-0.7-1.04-1.05-2.5-1.05-4.39c0-2.17,0.49-3.84,1.45-5.01
			c0.97-1.16,2.34-1.75,4.11-1.75c0.73,0,1.39,0.07,1.96,0.22c0.58,0.15,1.09,0.37,1.54,0.67l-0.51,2.79
			c-0.52-0.19-1.02-0.31-1.52-0.34s-1-0.05-1.52-0.05c-2.13,0-3.2,1.09-3.2,3.26c0,0.91,0.18,1.6,0.55,2.1s0.89,0.74,1.56,0.74
			c0.76,0,1.4-0.22,1.92-0.66s0.9-1,1.15-1.69c0.25-0.69,0.38-1.39,0.38-2.11v-2.25l0.72,5.28h-0.97l0.39-0.62
			c0,1.19-0.16,2.18-0.49,2.98c-0.33,0.8-0.79,1.39-1.38,1.79S517.16,369,516.35,369z M520.68,368.81l-0.16-6.09l-0.33-1.71v-5.32
			c0-1.37-0.29-2.38-0.86-3.02c-0.58-0.64-1.43-0.99-2.57-1.04l-2.94-0.14l0.23-3.65l2.48,0.06c2.03,0.05,3.54,0.79,4.52,2.2
			c0.99,1.42,1.48,3.48,1.48,6.2v8.58l2.09,0.43v3.3L520.68,368.81z"/>
		<path class="st1" d="M526.25,343.12v-3.61h3.82v3.61H526.25z M533.89,369c-1.42,0-2.45-0.65-3.08-1.94
			c-0.63-1.29-0.95-3.36-0.95-6.21v-21.35h2.46v21.15c0,1.09,0.06,1.97,0.19,2.66c0.12,0.69,0.37,1.19,0.72,1.51
			c0.36,0.32,0.89,0.48,1.59,0.48c0.64,0,1.46-0.25,2.46-0.74l0.28,3.61c-0.63,0.28-1.23,0.49-1.8,0.62
			C535.18,368.94,534.56,369,533.89,369z"/>
		<path class="st1" d="M558.94,369c-1.61,0-2.83-0.89-3.66-2.66c-0.83-1.77-1.25-4.38-1.25-7.82c0-3.57,0.42-6.27,1.25-8.11
			c0.83-1.84,2.05-2.76,3.66-2.76c0.92,0,1.67,0.36,2.24,1.09c0.58,0.72,0.91,1.73,1.01,3.03h0.95l-0.72,5.86
			c0-2.12-0.25-3.73-0.75-4.83s-1.23-1.65-2.2-1.65c-0.99,0-1.74,0.62-2.25,1.86c-0.51,1.24-0.76,3.08-0.76,5.51
			c0,2.3,0.25,4.04,0.76,5.22c0.51,1.18,1.26,1.77,2.25,1.77c0.97,0,1.7-0.55,2.2-1.65s0.75-2.71,0.75-4.83l0.83,5.86h-1.07
			c-0.08,1.29-0.4,2.3-0.98,3.03C560.64,368.64,559.88,369,558.94,369z M562.68,368.81l-0.26-4.04v-25.26h2.46v29.11L562.68,368.81z
			"/>
		<path class="st1" d="M574.85,369c-2.09,0-3.71-0.92-4.85-2.77c-1.14-1.84-1.71-4.49-1.71-7.95c0-3.36,0.48-5.98,1.45-7.84
			s2.33-2.79,4.09-2.79c1.66,0,2.95,0.84,3.85,2.52c0.91,1.68,1.36,4.13,1.36,7.33c0,0.94-0.02,1.82-0.07,2.64h-8.62v-3.14h6.47
			c0-1.85-0.26-3.27-0.79-4.26s-1.25-1.48-2.18-1.48c-1.04,0-1.85,0.6-2.43,1.79c-0.58,1.19-0.86,2.87-0.86,5.05
			c0,2.38,0.4,4.19,1.19,5.43s1.92,1.86,3.38,1.86c0.51,0,1.01-0.05,1.51-0.15s1-0.23,1.51-0.4l0.3,3.61
			c-0.73,0.23-1.39,0.38-1.99,0.45C575.84,368.97,575.31,369,574.85,369z"/>
		<path class="st1" d="M603.31,369c-5.11,0-7.67-4.73-7.67-14.2c0-4.49,0.64-7.97,1.93-10.43s3.11-3.7,5.46-3.7
			c1.14,0,2.12,0.3,2.97,0.9s1.46,1.46,1.84,2.57l-1.71,2.85c-0.35-0.88-0.79-1.56-1.33-2.04c-0.54-0.48-1.12-0.72-1.74-0.72
			c-1.49,0-2.69,0.9-3.59,2.7c-0.9,1.8-1.35,4.35-1.35,7.66c0,7.22,1.86,10.83,5.59,10.83c1.12,0,2.22-0.39,3.31-1.16l0.53,3.42
			C606.21,368.56,604.79,369,603.31,369z"/>
		<path class="st1" d="M614.29,369c-1.29,0-2.29-0.64-3-1.93s-1.06-3.1-1.06-5.44v-13.58h2.46v13.58c0,1.18,0.2,2.09,0.6,2.73
			s0.97,0.96,1.69,0.96c0.9,0,1.57-0.48,2.03-1.43s0.68-2.54,0.68-4.78l0.63,5.55h-0.81c-0.19,1.4-0.57,2.47-1.14,3.22
			C615.82,368.63,615.12,369,614.29,369z M617.7,362.79v-14.75h2.46v13.58L617.7,362.79z M617.91,368.81l-0.21-4.93v-3.61h2.46v4.62
			l1.69,0.43v3.3L617.91,368.81z"/>
		<path class="st1" d="M624.4,368.62v-20.57h2.22l0.23,4.35v16.22H624.4z M631.95,368.62v-13.39c0-1.24-0.19-2.2-0.58-2.87
			c-0.39-0.67-0.93-1.01-1.62-1.01c-1.93,0-2.9,1.9-2.9,5.71l-0.72-5.28h0.95c0.07-1.38,0.37-2.42,0.9-3.09s1.31-1.02,2.34-1.02
			c1.3,0,2.3,0.66,3.01,1.98c0.71,1.32,1.07,3.18,1.07,5.59v13.39H631.95z"/>
		<path class="st1" d="M642.37,369c-1.61,0-2.83-0.89-3.66-2.66c-0.83-1.77-1.25-4.38-1.25-7.82c0-3.57,0.42-6.27,1.25-8.11
			c0.83-1.84,2.05-2.76,3.66-2.76c0.92,0,1.67,0.36,2.24,1.09c0.58,0.72,0.91,1.73,1.01,3.03h0.95l-0.72,5.86
			c0-2.12-0.25-3.73-0.75-4.83s-1.23-1.65-2.2-1.65c-0.99,0-1.74,0.62-2.25,1.86c-0.51,1.24-0.76,3.08-0.76,5.51
			c0,2.3,0.25,4.04,0.76,5.22c0.51,1.18,1.26,1.77,2.25,1.77c0.97,0,1.7-0.55,2.2-1.65s0.75-2.71,0.75-4.83l0.83,5.86h-1.07
			c-0.08,1.29-0.4,2.3-0.98,3.03C644.07,368.64,643.31,369,642.37,369z M646.12,368.81l-0.26-4.04v-25.26h2.46v29.11L646.12,368.81z
			"/>
		<path class="st1" d="M652.12,368.62v-3.61h4.91v3.61H652.12z M652.81,351.66v-3.61h6.44v3.61H652.81z M657.95,344.79
			c-0.47,0-0.87-0.28-1.21-0.84c-0.34-0.56-0.5-1.24-0.5-2.03c0-0.8,0.17-1.48,0.5-2.04c0.34-0.56,0.74-0.83,1.21-0.83
			c0.48,0,0.88,0.28,1.22,0.83s0.5,1.24,0.5,2.04c0,0.79-0.17,1.47-0.5,2.03C658.83,344.51,658.43,344.79,657.95,344.79z
			 M656.8,368.62v-19.4h2.46v19.4H656.8z M659.02,368.62v-3.61h4.01v3.61H659.02z"/>
		<path class="st1" d="M666.12,368.62v-20.57h2.22l0.23,4.35v16.22H666.12z M673.67,368.62v-13.39c0-1.24-0.19-2.2-0.58-2.87
			c-0.39-0.67-0.93-1.01-1.62-1.01c-1.93,0-2.9,1.9-2.9,5.71l-0.72-5.28h0.95c0.07-1.38,0.37-2.42,0.9-3.09s1.31-1.02,2.34-1.02
			c1.3,0,2.3,0.66,3.01,1.98c0.71,1.32,1.07,3.18,1.07,5.59v13.39H673.67z"/>
		<path class="st1" d="M683.22,369c-1.28,0-2.28-0.52-2.98-1.55c-0.7-1.04-1.05-2.5-1.05-4.39c0-2.17,0.49-3.84,1.45-5.01
			c0.97-1.16,2.34-1.75,4.11-1.75c0.73,0,1.39,0.07,1.96,0.22c0.58,0.15,1.09,0.37,1.54,0.67l-0.51,2.79
			c-0.52-0.19-1.02-0.31-1.52-0.34s-1-0.05-1.52-0.05c-2.13,0-3.2,1.09-3.2,3.26c0,0.91,0.18,1.6,0.55,2.1s0.89,0.74,1.56,0.74
			c0.76,0,1.4-0.22,1.92-0.66s0.9-1,1.15-1.69c0.25-0.69,0.38-1.39,0.38-2.11v-2.25l0.72,5.28h-0.97l0.39-0.62
			c0,1.19-0.16,2.18-0.49,2.98c-0.33,0.8-0.79,1.39-1.38,1.79S684.03,369,683.22,369z M687.55,368.81l-0.16-6.09l-0.33-1.71v-5.32
			c0-1.37-0.29-2.38-0.86-3.02c-0.58-0.64-1.43-0.99-2.57-1.04l-2.94-0.14l0.23-3.65l2.48,0.06c2.03,0.05,3.54,0.79,4.52,2.2
			c0.99,1.42,1.48,3.48,1.48,6.2v8.58l2.09,0.43v3.3L687.55,368.81z"/>
		<path class="st1" d="M693.28,368.62v-20.57h2.18l0.28,4.35v16.22H693.28z M697.89,368.62v-16.11c0-1.16-0.32-1.75-0.97-1.75
			c-0.79,0-1.18,0.93-1.18,2.79l-0.72-2.95h0.79c0.09-1.97,0.8-2.95,2.11-2.95c0.64,0,1.14,0.37,1.51,1.11
			c0.37,0.74,0.55,1.86,0.55,3.36v16.49H697.89z M702.13,368.62V352.9c0-1.42-0.32-2.13-0.95-2.13c-0.8,0-1.21,0.93-1.21,2.79
			l-0.83-2.95h0.95c0.04-0.8,0.23-1.49,0.57-2.08s0.84-0.87,1.49-0.87c0.85,0,1.47,0.38,1.85,1.15c0.39,0.76,0.58,2,0.58,3.71v16.11
			H702.13z"/>
		<path class="st1" d="M711.03,369c-1.28,0-2.28-0.52-2.98-1.55c-0.7-1.04-1.05-2.5-1.05-4.39c0-2.17,0.49-3.84,1.45-5.01
			c0.97-1.16,2.34-1.75,4.11-1.75c0.73,0,1.39,0.07,1.96,0.22c0.58,0.15,1.09,0.37,1.54,0.67l-0.51,2.79
			c-0.52-0.19-1.02-0.31-1.52-0.34s-1-0.05-1.52-0.05c-2.13,0-3.2,1.09-3.2,3.26c0,0.91,0.18,1.6,0.55,2.1s0.89,0.74,1.56,0.74
			c0.76,0,1.4-0.22,1.92-0.66s0.9-1,1.15-1.69c0.25-0.69,0.38-1.39,0.38-2.11v-2.25l0.72,5.28h-0.97l0.39-0.62
			c0,1.19-0.16,2.18-0.49,2.98c-0.33,0.8-0.79,1.39-1.38,1.79S711.84,369,711.03,369z M715.37,368.81l-0.16-6.09l-0.33-1.71v-5.32
			c0-1.37-0.29-2.38-0.86-3.02c-0.58-0.64-1.43-0.99-2.57-1.04l-2.94-0.14l0.23-3.65l2.48,0.06c2.03,0.05,3.54,0.79,4.52,2.2
			c0.99,1.42,1.48,3.48,1.48,6.2v8.58l2.09,0.43v3.3L715.37,368.81z"/>
		<path class="st1" d="M720.72,368.62v-3.61h8.21v3.61H720.72z M721.18,351.66v-3.61h4.1l0.23,3.61H721.18z M723.46,368.62v-20.57
			h1.99l0.46,5.9v14.67H723.46z M725.91,359.77l-0.72-6.44h0.95c0.14-3.78,1.27-5.67,3.38-5.67c1.27,0,2.19,0.61,2.76,1.82
			c0.57,1.22,0.86,3.18,0.86,5.9h-2.43c0-1.5-0.13-2.58-0.4-3.24c-0.27-0.66-0.7-0.99-1.29-0.99c-1.04,0-1.82,0.75-2.33,2.24
			C726.17,354.89,725.91,357.01,725.91,359.77z"/>
		<path class="st1" d="M741.83,369c-2.09,0-3.71-0.92-4.85-2.77c-1.14-1.84-1.71-4.49-1.71-7.95c0-3.36,0.54-5.98,1.62-7.84
			c1.08-1.86,2.62-2.79,4.62-2.79c1.2,0,2.22,0.37,3.08,1.12c0.85,0.74,1.46,1.79,1.82,3.15l-1.89,2.39
			c-0.35-0.94-0.79-1.67-1.33-2.19c-0.54-0.52-1.13-0.78-1.77-0.78c-1.16,0-2.06,0.59-2.7,1.76s-0.96,2.84-0.96,5
			c0,2.34,0.38,4.13,1.13,5.37c0.75,1.24,1.83,1.85,3.23,1.85c0.57,0,1.14-0.04,1.71-0.14c0.57-0.09,1.13-0.21,1.67-0.37l0.28,3.61
			c-0.63,0.23-1.29,0.39-1.96,0.47C743.13,368.96,742.48,369,741.83,369z"/>
		<path class="st1" d="M752.75,369c-1.28,0-2.28-0.52-2.98-1.55c-0.7-1.04-1.05-2.5-1.05-4.39c0-2.17,0.49-3.84,1.45-5.01
			c0.97-1.16,2.34-1.75,4.11-1.75c0.73,0,1.39,0.07,1.96,0.22c0.58,0.15,1.09,0.37,1.54,0.67l-0.51,2.79
			c-0.52-0.19-1.02-0.31-1.52-0.34s-1-0.05-1.52-0.05c-2.13,0-3.2,1.09-3.2,3.26c0,0.91,0.18,1.6,0.55,2.1s0.89,0.74,1.56,0.74
			c0.76,0,1.4-0.22,1.92-0.66s0.9-1,1.15-1.69c0.25-0.69,0.38-1.39,0.38-2.11v-2.25l0.72,5.28h-0.97l0.39-0.62
			c0,1.19-0.16,2.18-0.49,2.98c-0.33,0.8-0.79,1.39-1.38,1.79S753.56,369,752.75,369z M757.08,368.81l-0.16-6.09l-0.33-1.71v-5.32
			c0-1.37-0.29-2.38-0.86-3.02c-0.58-0.64-1.43-0.99-2.57-1.04l-2.94-0.14l0.23-3.65l2.48,0.06c2.03,0.05,3.54,0.79,4.52,2.2
			c0.99,1.42,1.48,3.48,1.48,6.2v8.58l2.09,0.43v3.3L757.08,368.81z"/>
	</g>
</g>
</svg>
